<svg width="503" height="394" viewBox="0 0 503 394" fill="none" xmlns="http://www.w3.org/2000/svg">
<path d="M80.3198 282.37H80.3298L81.0798 281.65L80.3198 282.37Z" fill="#BFEF01"/>
<g filter="url(#filter0_d_120_3377)">
<path d="M476.23 191.2L488.42 180.86L411.28 100.53L423.87 88.55L319.41 0L241.23 68.7L161.73 0.03L71.57 88.51L83.34 100.45L0.08 180.85L9.13 188.65L10.75 190.05L9.07 191.47L0 199.19L80.32 282.37L81.08 281.65L80.33 282.38H80.32L68.78 293.29L161.73 385.36L241.23 321.31L319.41 385.38L422.32 296.92L408.09 282.43L488.42 199.38L476.23 191.2ZM80.98 245.01L28.24 190.4L82.85 137.65L135.6 192.27L80.98 245.01ZM320.38 336.63L243.05 279.13L241.23 277.77L239.08 279.33L159.84 336.56L94.58 268.61L144.76 220.15V163.71L96.94 114.19L159.84 48.83L231.65 107.55L241.23 115.38L249.74 108.22L320.38 48.76L396.87 114.25L344.85 164.48V217.13L396.96 271.09L320.38 336.63ZM408.65 245.28L355.78 190.53L410.53 137.67L463.15 190.27L408.65 245.28Z" fill="#BFEF01"/>
</g>
<path d="M83.3301 100.44L160.76 25.0801L241.44 91.9801L321.01 25.0801L410.87 100.29" stroke="#C8B803" stroke-width="5" stroke-miterlimit="10"/>
<path d="M81.0798 281.65L80.3298 282.38L80.3198 282.37L81.0798 281.65Z" fill="#BFEF01"/>
<path d="M80.6399 282.32L160.76 360.3L241.23 300.25L321.01 360.3L410.87 285.1" stroke="#C8B803" stroke-width="5" stroke-miterlimit="10"/>
<g filter="url(#filter1_d_120_3377)">
<path d="M326.85 190.16C326.77 187.51 326.6 184.91 326.33 182.36C325.03 169.91 321.5 158.65 315.75 148.6C308.31 135.61 297.82 125.53 284.26 118.33C274.05 112.93 262.54 109.55 249.74 108.22C245.54 107.77 241.2 107.55 236.71 107.55H181.01C176.17 107.55 172.25 111.47 172.25 116.3V189.11C172.25 190.13 172.25 191.15 172.24 192.17C172.24 192.66 172.24 193.14 172.23 193.62C172.19 200.86 172.1 208.11 172.51 215.35C172.75 219.67 173.17 224.05 172.39 228.31C171.09 235.49 166.72 242.4 162.48 248.22C154.04 259.84 142.35 269.16 129.04 274.58C126.48 275.62 127.15 279.45 129.91 279.48H129.99C131.46 279.49 132.93 279.5 134.39 279.51C160.85 279.68 187.3 279.59 213.75 279.59C222.25 279.59 230.72 279.69 239.08 279.33C240.41 279.27 241.73 279.21 243.05 279.13C257.19 278.24 271 275.74 284.14 268.82C297.78 261.63 308.31 251.5 315.75 238.43C322.46 226.63 326.14 213.3 326.79 198.43C326.82 197.95 326.83 197.46 326.85 196.97C326.88 195.85 326.9 194.72 326.9 193.58C326.9 192.44 326.88 191.29 326.85 190.16ZM271.02 230.34C262.2 239 249.86 243.33 234.02 243.33H222.92C218.08 243.33 214.16 239.41 214.16 234.57V152.09C214.16 147.25 218.08 143.33 222.92 143.33H234.02C249.86 143.33 262.2 147.74 271.02 156.57C279.85 165.39 284.26 177.73 284.26 193.58C284.26 209.43 279.85 221.68 271.02 230.34Z" fill="#BFEF01"/>
</g>
<path d="M410.88 117.08L344.85 180.85V187.18L410.8 123.5L476.62 190.38L408.37 259.4L344.85 193.62V200.18L408.33 265.92L483.02 190.38L410.88 117.08Z" fill="#C8B803"/>
<path d="M144.76 187.38V180.83L83.2199 117.1L9.12994 188.65L7.68994 190.04L9.06994 191.47L80.6199 265.56L144.76 203.63V197.31L80.7399 259.14L14.1199 190.15L83.0999 123.53L144.76 187.38Z" fill="#C8B803"/>
<path d="M196.88 149.1L197.74 149.43L197.71 150.5L197.69 151.56L197.6 155.78L196.74 155.77L195.88 155.75L195.98 150.89L196.01 149.83L196.03 148.76L196.88 149.09V149.1Z" fill="black"/>
<path d="M197.86 143.78L197.83 144.86L197.81 145.95L196.96 145.57L196.11 145.19L196.13 144.1L196.15 143.02L197 143.4L197.86 143.78Z" fill="black"/>
<path d="M197.96 138.77L197.94 139.86L197.92 140.94L197.06 140.56L196.21 140.18L196.24 139.1L196.26 138.01L197.11 138.39L197.96 138.77Z" fill="black"/>
<path d="M198.07 133.9L198.04 134.98L198.02 136.07L197.17 135.69L196.32 135.31L196.34 134.22L196.36 133.14L197.22 133.52L198.07 133.9Z" fill="black"/>
<path d="M198.34 121.15L198.2 127.85V127.86L198.18 128.81L198.16 129.61L198.15 129.89L198.13 130.99L197.28 130.6L196.43 130.22L196.45 129.12L196.47 128.04L196.62 121.12L197.48 121.13L198.34 121.15Z" fill="black"/>
<path d="M193.04 147.58L193.89 147.91L193.87 148.98L193.84 150.04L193.72 155.78L192.86 155.77L192 155.75L192.11 150.77L192.14 149.37L192.15 148.86L192.16 148.31L192.18 147.24L193.04 147.58Z" fill="black"/>
<path d="M194.01 142.07L193.99 143.15L193.97 144.23L193.11 143.85L192.26 143.47L192.29 142.39L192.31 141.31L193.16 141.69L194.01 142.07Z" fill="black"/>
<path d="M194.12 137.06L194.1 138.15L194.07 139.22L193.22 138.85L192.37 138.47L192.39 137.39L192.42 136.3L193.27 136.68L194.12 137.06Z" fill="black"/>
<path d="M194.22 132.19L194.2 133.27L194.18 134.36L193.33 133.98L192.47 133.6L192.5 132.52L192.52 131.43L193.37 131.81L194.22 132.19Z" fill="black"/>
<path d="M194.46 121.15L194.33 127.07L194.31 128.16L194.29 129.25L193.43 128.86L192.58 128.48L192.61 127.39L192.63 126.3L192.74 121.12L193.6 121.13L194.46 121.15Z" fill="black"/>
<path d="M211.42 155.91C211.27 156.3 210.89 156.54 210.49 156.54C210.37 156.54 210.25 156.52 210.13 156.47L197.69 151.56L196.84 151.23L195.98 150.89L193.84 150.04L192.99 149.71L192.75 149.62L192.14 149.37L191.15 148.98L187.47 147.53C186.95 147.33 186.7 146.75 186.9 146.23C187.11 145.72 187.68 145.47 188.2 145.67L192.18 147.24L193.04 147.58L193.89 147.91L196.03 148.76L196.88 149.09L197.74 149.43L210.86 154.61C211.37 154.81 211.63 155.39 211.42 155.91Z" fill="black"/>
<path d="M202.66 147.01C202.5 147.38 202.13 147.6 201.75 147.6C201.61 147.6 201.47 147.57 201.34 147.52L197.81 145.95L196.96 145.57L196.11 145.19L193.97 144.23L193.11 143.85L192.26 143.47L187.43 141.32C186.92 141.1 186.7 140.51 186.92 140C187.14 139.5 187.74 139.27 188.24 139.5L192.31 141.31L193.16 141.69L194.01 142.07L196.15 143.02L197 143.4L197.86 143.78L202.15 145.69C202.66 145.91 202.89 146.5 202.66 147.01Z" fill="black"/>
<path d="M183.9 156.76C183.6 156.76 183.3 156.62 183.1 156.37C182.77 155.93 182.85 155.3 183.29 154.97L191.15 148.98C191.59 148.64 192.22 148.73 192.55 149.17C192.88 149.61 192.8 150.24 192.36 150.57L184.5 156.56C184.32 156.7 184.11 156.77 183.89 156.77L183.9 156.76Z" fill="black"/>
<path d="M198.67 129.75C198.37 129.75 198.07 129.61 197.87 129.36C197.54 128.92 197.62 128.29 198.06 127.96L205.91 121.97C206.35 121.63 206.98 121.72 207.31 122.16C207.64 122.6 207.56 123.23 207.12 123.56L199.27 129.55C199.09 129.69 198.88 129.76 198.66 129.76L198.67 129.75Z" fill="black"/>
<path d="M202.66 141.95C202.5 142.33 202.13 142.55 201.75 142.55C201.61 142.55 201.47 142.52 201.34 142.46L197.92 140.94L197.06 140.56L196.21 140.18L194.07 139.23L193.22 138.85L192.37 138.47L187.43 136.27C186.92 136.05 186.7 135.45 186.92 134.95C187.14 134.45 187.74 134.22 188.24 134.44L192.42 136.3L193.27 136.68L194.12 137.06L196.26 138.01L197.11 138.39L197.96 138.77L202.15 140.63C202.66 140.86 202.89 141.45 202.66 141.95Z" fill="black"/>
<path d="M202.66 137.04C202.5 137.41 202.13 137.63 201.75 137.63C201.61 137.63 201.47 137.61 201.34 137.55L198.02 136.07L197.17 135.69L196.32 135.31L194.18 134.36L193.33 133.98L192.47 133.6L187.43 131.36C186.92 131.13 186.7 130.54 186.92 130.04C187.14 129.53 187.74 129.31 188.24 129.53L192.52 131.43L193.37 131.81L194.22 132.19L196.36 133.14L197.22 133.52L198.07 133.9L202.15 135.72C202.66 135.95 202.89 136.54 202.66 137.04Z" fill="black"/>
<path d="M202.66 131.94C202.49 132.31 202.13 132.53 201.75 132.53C201.61 132.53 201.47 132.5 201.34 132.44L198.13 130.99L197.28 130.6L196.43 130.22L194.29 129.25L193.43 128.86L192.58 128.48L180.19 122.87C179.68 122.65 179.46 122.05 179.69 121.55C179.92 121.05 180.51 120.82 181.01 121.05L192.63 126.3L193.48 126.69L194.33 127.07L196.47 128.04L197.32 128.42L197.68 128.59L198.18 128.81L199.48 129.4L202.16 130.61C202.66 130.84 202.89 131.43 202.66 131.94Z" fill="black"/>
<path d="M196.16 186.31L197.02 186.75L196.99 188.2L196.97 189.63L196.88 195.31L196.02 195.3L195.16 195.27L195.26 188.72L195.29 187.29L195.31 185.85L196.16 186.3V186.31Z" fill="black"/>
<path d="M197.14 180.34L197.11 181.42L197.09 182.51L196.24 182.13L195.39 181.75L195.41 180.66L195.43 179.58L196.28 179.96L197.14 180.34Z" fill="black"/>
<path d="M197.24 175.33L197.22 176.42L197.2 177.5L196.34 177.12L195.49 176.74L195.52 175.66L195.54 174.57L196.39 174.95L197.24 175.33Z" fill="black"/>
<path d="M197.35 170.46L197.32 171.54L197.3 172.63L196.45 172.25L195.6 171.87L195.62 170.78L195.64 169.7L196.5 170.08L197.35 170.46Z" fill="black"/>
<path d="M197.62 154.04L197.48 163.24V163.25L197.46 164.56L197.44 165.66L197.43 166.04L197.41 167.55L196.56 167.02L195.71 166.5L195.73 164.99L195.75 163.5L195.9 154L196.76 154.01L197.62 154.04Z" fill="black"/>
<path d="M192.32 184.26L193.17 184.71L193.15 186.15L193.12 187.58L193 195.31L192.14 195.3L191.28 195.27L191.39 188.56L191.42 186.67L191.43 185.99L191.44 185.25L191.46 183.8L192.32 184.26Z" fill="black"/>
<path d="M193.29 178.63L193.27 179.71L193.25 180.79L192.39 180.41L191.54 180.03L191.57 178.95L191.59 177.87L192.44 178.25L193.29 178.63Z" fill="black"/>
<path d="M193.4 173.62L193.38 174.71L193.35 175.78L192.5 175.41L191.65 175.03L191.67 173.95L191.7 172.86L192.55 173.24L193.4 173.62Z" fill="black"/>
<path d="M193.5 168.75L193.48 169.83L193.46 170.92L192.61 170.54L191.75 170.16L191.78 169.08L191.8 167.99L192.65 168.37L193.5 168.75Z" fill="black"/>
<path d="M193.74 154.04L193.61 162.17L193.59 163.67L193.57 165.16L192.71 164.63L191.86 164.11L191.89 162.61L191.91 161.11L192.02 154L192.88 154.01L193.74 154.04Z" fill="black"/>
<path d="M210.7 192.47C210.55 192.86 210.17 193.1 209.77 193.1C209.65 193.1 209.53 193.08 209.41 193.03L196.97 188.12L196.12 187.79L195.26 187.45L193.12 186.6L192.27 186.27L192.03 186.18L191.42 185.93L190.43 185.54L186.75 184.09C186.23 183.89 185.98 183.31 186.18 182.79C186.39 182.28 186.96 182.03 187.48 182.23L191.46 183.8L192.32 184.14L193.17 184.47L195.31 185.32L196.16 185.65L197.02 185.99L210.14 191.17C210.65 191.37 210.91 191.95 210.7 192.47Z" fill="black"/>
<path d="M201.94 183.57C201.78 183.94 201.41 184.16 201.03 184.16C200.89 184.16 200.75 184.13 200.62 184.08L197.09 182.51L196.24 182.13L195.39 181.75L193.25 180.79L192.39 180.41L191.54 180.03L186.71 177.88C186.2 177.66 185.98 177.07 186.2 176.56C186.42 176.06 187.02 175.83 187.52 176.06L191.59 177.87L192.44 178.25L193.29 178.63L195.43 179.58L196.28 179.96L197.14 180.34L201.43 182.25C201.94 182.47 202.17 183.06 201.94 183.57Z" fill="black"/>
<path d="M183.18 193.33C182.88 193.33 182.58 193.19 182.38 192.94C182.05 192.5 182.13 191.87 182.57 191.54L190.43 185.55C190.87 185.21 191.5 185.3 191.83 185.74C192.16 186.18 192.08 186.81 191.64 187.14L183.78 193.13C183.6 193.27 183.39 193.34 183.17 193.34L183.18 193.33Z" fill="black"/>
<path d="M197.95 166.32C197.65 166.32 197.35 166.18 197.15 165.93C196.82 165.49 196.9 164.86 197.34 164.53L205.19 158.54C205.63 158.2 206.26 158.29 206.59 158.73C206.92 159.17 206.84 159.8 206.4 160.13L198.55 166.12C198.37 166.26 198.16 166.33 197.94 166.33L197.95 166.32Z" fill="black"/>
<path d="M201.94 178.51C201.78 178.89 201.41 179.11 201.03 179.11C200.89 179.11 200.75 179.08 200.62 179.02L197.2 177.5L196.34 177.12L195.49 176.74L193.35 175.79L192.5 175.41L191.65 175.03L186.71 172.83C186.2 172.61 185.98 172.01 186.2 171.51C186.42 171.01 187.02 170.78 187.52 171L191.7 172.86L192.55 173.24L193.4 173.62L195.54 174.57L196.39 174.95L197.24 175.33L201.43 177.19C201.94 177.42 202.17 178.01 201.94 178.51Z" fill="black"/>
<path d="M201.94 173.6C201.78 173.97 201.41 174.19 201.03 174.19C200.89 174.19 200.75 174.17 200.62 174.11L197.3 172.63L196.45 172.25L195.6 171.87L193.46 170.92L192.61 170.54L191.75 170.16L186.71 167.92C186.2 167.69 185.98 167.1 186.2 166.6C186.42 166.09 187.02 165.87 187.52 166.09L191.8 167.99L192.65 168.37L193.5 168.75L195.64 169.7L196.5 170.08L197.35 170.46L201.43 172.28C201.94 172.51 202.17 173.1 201.94 173.6Z" fill="black"/>
<path d="M201.94 168.5C201.77 168.87 201.41 169.09 201.03 169.09C200.89 169.09 200.75 169.06 200.62 169L197.41 167.55L196.56 167.16L195.71 166.78L193.57 165.81L192.71 165.42L191.86 165.04L179.47 159.43C178.96 159.21 178.74 158.61 178.97 158.11C179.2 157.61 179.79 157.38 180.29 157.61L191.91 162.86L192.76 163.25L193.61 163.63L195.75 164.6L196.6 164.98L196.96 165.15L197.46 165.37L198.76 165.96L201.44 167.17C201.94 167.4 202.17 167.99 201.94 168.5Z" fill="black"/>
<path d="M195.43 223.28L196.29 223.61L196.26 224.68L196.24 225.74L196.15 229.96L195.29 229.95L194.43 229.93L194.53 225.07L194.56 224.01L194.58 222.94L195.43 223.27V223.28Z" fill="black"/>
<path d="M196.41 217.96L196.38 219.04L196.36 220.13L195.51 219.75L194.66 219.37L194.68 218.28L194.7 217.2L195.55 217.58L196.41 217.96Z" fill="black"/>
<path d="M196.51 212.95L196.49 214.04L196.47 215.12L195.61 214.74L194.76 214.36L194.79 213.28L194.81 212.19L195.66 212.57L196.51 212.95Z" fill="black"/>
<path d="M196.62 208.08L196.59 209.16L196.57 210.25L195.72 209.87L194.87 209.49L194.89 208.4L194.91 207.32L195.77 207.7L196.62 208.08Z" fill="black"/>
<path d="M196.89 195.33L196.75 202.03V202.04L196.73 202.99L196.71 203.79L196.7 204.07L196.68 205.17L195.83 204.78L194.98 204.4L195 203.3L195.02 202.22L195.17 195.3L196.03 195.31L196.89 195.33Z" fill="black"/>
<path d="M191.59 221.76L192.44 222.09L192.42 223.16L192.39 224.22L192.27 229.96L191.41 229.95L190.55 229.93L190.66 224.95L190.69 223.55L190.7 223.04L190.71 222.49L190.73 221.42L191.59 221.76Z" fill="black"/>
<path d="M192.56 216.25L192.54 217.33L192.52 218.41L191.66 218.03L190.81 217.65L190.84 216.57L190.86 215.49L191.71 215.87L192.56 216.25Z" fill="black"/>
<path d="M192.67 211.24L192.65 212.33L192.62 213.4L191.77 213.03L190.92 212.65L190.94 211.57L190.97 210.48L191.82 210.86L192.67 211.24Z" fill="black"/>
<path d="M192.77 206.37L192.75 207.45L192.73 208.54L191.88 208.16L191.02 207.78L191.05 206.7L191.07 205.61L191.92 205.99L192.77 206.37Z" fill="black"/>
<path d="M193.01 195.33L192.88 201.25L192.86 202.34L192.84 203.43L191.98 203.04L191.13 202.66L191.16 201.57L191.18 200.48L191.29 195.3L192.15 195.31L193.01 195.33Z" fill="black"/>
<path d="M209.97 230.09C209.82 230.48 209.44 230.72 209.04 230.72C208.92 230.72 208.8 230.7 208.68 230.65L196.24 225.74L195.39 225.41L194.53 225.07L192.39 224.22L191.54 223.89L191.3 223.8L190.69 223.55L189.7 223.16L186.02 221.71C185.5 221.51 185.25 220.93 185.45 220.41C185.66 219.9 186.23 219.65 186.75 219.85L190.73 221.42L191.59 221.76L192.44 222.09L194.58 222.94L195.43 223.27L196.29 223.61L209.41 228.79C209.92 228.99 210.18 229.57 209.97 230.09Z" fill="black"/>
<path d="M201.21 221.19C201.05 221.56 200.68 221.78 200.3 221.78C200.16 221.78 200.02 221.75 199.89 221.7L196.36 220.13L195.51 219.75L194.66 219.37L192.52 218.41L191.66 218.03L190.81 217.65L185.98 215.5C185.47 215.28 185.25 214.69 185.47 214.18C185.69 213.68 186.29 213.45 186.79 213.68L190.86 215.49L191.71 215.87L192.56 216.25L194.7 217.2L195.55 217.58L196.41 217.96L200.7 219.87C201.21 220.09 201.44 220.68 201.21 221.19Z" fill="black"/>
<path d="M182.46 230.95C182.16 230.95 181.86 230.81 181.66 230.56C181.33 230.12 181.41 229.49 181.85 229.16L189.71 223.17C190.15 222.83 190.78 222.92 191.11 223.36C191.44 223.8 191.36 224.43 190.92 224.76L183.06 230.75C182.88 230.89 182.67 230.96 182.45 230.96L182.46 230.95Z" fill="black"/>
<path d="M197.22 203.94C196.92 203.94 196.62 203.8 196.42 203.55C196.09 203.11 196.17 202.48 196.61 202.15L204.46 196.16C204.9 195.82 205.53 195.91 205.86 196.35C206.19 196.79 206.11 197.42 205.67 197.75L197.82 203.74C197.64 203.88 197.43 203.95 197.21 203.95L197.22 203.94Z" fill="black"/>
<path d="M201.21 216.13C201.05 216.51 200.68 216.73 200.3 216.73C200.16 216.73 200.02 216.7 199.89 216.64L196.47 215.12L195.61 214.74L194.76 214.36L192.62 213.41L191.77 213.03L190.92 212.65L185.98 210.45C185.47 210.23 185.25 209.63 185.47 209.13C185.69 208.63 186.29 208.4 186.79 208.62L190.97 210.48L191.82 210.86L192.67 211.24L194.81 212.19L195.66 212.57L196.51 212.95L200.7 214.81C201.21 215.04 201.44 215.63 201.21 216.13Z" fill="black"/>
<path d="M201.21 211.22C201.05 211.59 200.68 211.81 200.3 211.81C200.16 211.81 200.02 211.79 199.89 211.73L196.57 210.25L195.72 209.87L194.87 209.49L192.73 208.54L191.88 208.16L191.02 207.78L185.98 205.54C185.47 205.31 185.25 204.72 185.47 204.22C185.69 203.71 186.29 203.49 186.79 203.71L191.07 205.61L191.92 205.99L192.77 206.37L194.91 207.32L195.77 207.7L196.62 208.08L200.7 209.9C201.21 210.13 201.44 210.72 201.21 211.22Z" fill="black"/>
<path d="M201.21 206.12C201.04 206.49 200.68 206.71 200.3 206.71C200.16 206.71 200.02 206.68 199.89 206.62L196.68 205.17L195.83 204.78L194.98 204.4L192.84 203.43L191.98 203.04L191.13 202.66L178.74 197.05C178.23 196.83 178.01 196.23 178.24 195.73C178.47 195.23 179.06 195 179.56 195.23L191.18 200.48L192.03 200.87L192.88 201.25L195.02 202.22L195.87 202.6L196.23 202.77L196.73 202.99L198.03 203.58L200.71 204.79C201.21 205.02 201.44 205.61 201.21 206.12Z" fill="black"/>
<path d="M194.71 259.85L195.57 260.18L195.54 261.25L195.52 262.31L195.43 266.53L194.57 266.52L193.71 266.5L193.81 261.64L193.84 260.58L193.86 259.51L194.71 259.84V259.85Z" fill="black"/>
<path d="M195.69 254.53L195.66 255.61L195.64 256.7L194.79 256.32L193.94 255.94L193.96 254.85L193.98 253.77L194.83 254.15L195.69 254.53Z" fill="black"/>
<path d="M195.79 249.52L195.77 250.61L195.75 251.69L194.89 251.31L194.04 250.93L194.07 249.85L194.09 248.76L194.94 249.14L195.79 249.52Z" fill="black"/>
<path d="M195.9 244.65L195.87 245.73L195.85 246.82L195 246.44L194.15 246.06L194.17 244.97L194.19 243.89L195.05 244.27L195.9 244.65Z" fill="black"/>
<path d="M196.17 228.22L196.03 237.43V237.44L196.01 238.74L195.99 239.84L195.98 240.23L195.96 241.74L195.11 241.2L194.26 240.68L194.28 239.17L194.3 237.69L194.45 228.18L195.31 228.2L196.17 228.22Z" fill="black"/>
<path d="M190.87 258.33L191.72 258.66L191.7 259.73L191.67 260.79L191.55 266.53L190.69 266.52L189.83 266.5L189.94 261.52L189.97 260.12L189.98 259.61L189.99 259.06L190.01 257.99L190.87 258.33Z" fill="black"/>
<path d="M191.84 252.82L191.82 253.9L191.8 254.98L190.94 254.6L190.09 254.22L190.12 253.14L190.14 252.06L190.99 252.44L191.84 252.82Z" fill="black"/>
<path d="M191.95 247.81L191.93 248.9L191.9 249.97L191.05 249.6L190.2 249.22L190.22 248.14L190.25 247.05L191.1 247.43L191.95 247.81Z" fill="black"/>
<path d="M192.05 242.94L192.03 244.02L192.01 245.11L191.16 244.73L190.3 244.35L190.33 243.27L190.35 242.18L191.2 242.56L192.05 242.94Z" fill="black"/>
<path d="M192.29 228.22L192.16 236.35L192.14 237.85L192.12 239.35L191.26 238.81L190.41 238.29L190.44 236.79L190.46 235.3L190.57 228.18L191.43 228.2L192.29 228.22Z" fill="black"/>
<path d="M209.25 266.66C209.1 267.05 208.72 267.29 208.32 267.29C208.2 267.29 208.08 267.27 207.96 267.22L195.52 262.31L194.67 261.98L193.81 261.64L191.67 260.79L190.82 260.46L190.58 260.37L189.97 260.12L188.98 259.73L185.3 258.28C184.78 258.08 184.53 257.5 184.73 256.98C184.94 256.47 185.51 256.22 186.03 256.42L190.01 257.99L190.87 258.33L191.72 258.66L193.86 259.51L194.71 259.84L195.57 260.18L208.69 265.36C209.2 265.56 209.46 266.14 209.25 266.66Z" fill="black"/>
<path d="M200.49 257.76C200.33 258.13 199.96 258.35 199.58 258.35C199.44 258.35 199.3 258.32 199.17 258.27L195.64 256.7L194.79 256.32L193.94 255.94L191.8 254.98L190.94 254.6L190.09 254.22L185.26 252.07C184.75 251.85 184.53 251.26 184.75 250.75C184.97 250.25 185.57 250.02 186.07 250.25L190.14 252.06L190.99 252.44L191.84 252.82L193.98 253.77L194.83 254.15L195.69 254.53L199.98 256.44C200.49 256.66 200.72 257.25 200.49 257.76Z" fill="black"/>
<path d="M181.74 267.51C181.44 267.51 181.14 267.37 180.94 267.12C180.61 266.68 180.69 266.05 181.13 265.72L188.99 259.73C189.43 259.39 190.06 259.48 190.39 259.92C190.72 260.36 190.64 260.99 190.2 261.32L182.34 267.31C182.16 267.45 181.95 267.52 181.73 267.52L181.74 267.51Z" fill="black"/>
<path d="M196.5 240.5C196.2 240.5 195.9 240.36 195.7 240.11C195.37 239.67 195.45 239.04 195.89 238.71L203.74 232.72C204.18 232.38 204.81 232.47 205.14 232.91C205.47 233.35 205.39 233.98 204.95 234.31L197.1 240.3C196.92 240.44 196.71 240.51 196.49 240.51L196.5 240.5Z" fill="black"/>
<path d="M200.49 252.7C200.33 253.08 199.96 253.3 199.58 253.3C199.44 253.3 199.3 253.27 199.17 253.21L195.75 251.69L194.89 251.31L194.04 250.93L191.9 249.98L191.05 249.6L190.2 249.22L185.26 247.02C184.75 246.8 184.53 246.2 184.75 245.7C184.97 245.2 185.57 244.97 186.07 245.19L190.25 247.05L191.1 247.43L191.95 247.81L194.09 248.76L194.94 249.14L195.79 249.52L199.98 251.38C200.49 251.61 200.72 252.2 200.49 252.7Z" fill="black"/>
<path d="M200.49 247.79C200.33 248.16 199.96 248.38 199.58 248.38C199.44 248.38 199.3 248.36 199.17 248.3L195.85 246.82L195 246.44L194.15 246.06L192.01 245.11L191.16 244.73L190.3 244.35L185.26 242.11C184.75 241.88 184.53 241.29 184.75 240.79C184.97 240.28 185.57 240.06 186.07 240.28L190.35 242.18L191.2 242.56L192.05 242.94L194.19 243.89L195.05 244.27L195.9 244.65L199.98 246.47C200.49 246.7 200.72 247.29 200.49 247.79Z" fill="black"/>
<path d="M200.49 242.69C200.32 243.06 199.96 243.28 199.58 243.28C199.44 243.28 199.3 243.25 199.17 243.19L195.96 241.74L195.11 241.35L194.26 240.97L192.12 240L191.26 239.61L190.41 239.23L178.02 233.62C177.51 233.4 177.29 232.8 177.52 232.3C177.75 231.8 178.34 231.57 178.84 231.8L190.46 237.05L191.31 237.44L192.16 237.82L194.3 238.79L195.15 239.17L195.51 239.34L196.01 239.56L197.31 240.15L199.99 241.36C200.49 241.59 200.72 242.18 200.49 242.69Z" fill="black"/>
<path d="M153.95 269.83L154.03 269.3L154.74 269.11L155.44 268.92L158.24 268.15L158.37 268.62L158.49 269.09L155.27 269.97L154.57 270.16L153.86 270.35L153.94 269.83H153.95Z" fill="black"/>
<path d="M150.69 270.2L151.28 270.05L151.87 269.89L151.8 270.41L151.73 270.93L151.14 271.09L150.55 271.25L150.62 270.73L150.69 270.2Z" fill="black"/>
<path d="M147.96 270.94L148.55 270.78L149.14 270.62L149.07 271.15L149 271.67L148.41 271.82L147.82 271.98L147.89 271.46L147.96 270.94Z" fill="black"/>
<path d="M145.3 271.65L145.89 271.5L146.49 271.33L146.41 271.86L146.34 272.38L145.75 272.54L145.16 272.7L145.23 272.17L145.3 271.65Z" fill="black"/>
<path d="M136.35 274.1L141.37 272.72L142.08 272.52L142.68 272.36L142.89 272.31L143.71 272.08L143.56 272.62L143.41 273.17L142.59 273.4L141.78 273.62L136.6 275.04L136.48 274.57L136.35 274.1Z" fill="black"/>
<path d="M153.55 272.2L153.64 271.68L154.34 271.48L155.05 271.3L158.85 270.26L158.98 270.73L159.1 271.2L155.8 272.09L154.87 272.35L154.54 272.44L154.17 272.54L153.46 272.73L153.55 272.2Z" fill="black"/>
<path d="M150.37 272.56L150.96 272.4L151.55 272.24L151.48 272.77L151.41 273.29L150.82 273.44L150.23 273.6L150.3 273.08L150.37 272.56Z" fill="black"/>
<path d="M147.64 273.29L148.23 273.13L148.82 272.98L148.75 273.5L148.68 274.02L148.09 274.18L147.5 274.33L147.57 273.81L147.64 273.29Z" fill="black"/>
<path d="M144.98 274.01L145.57 273.85L146.17 273.69L146.09 274.21L146.02 274.73L145.43 274.89L144.84 275.05L144.91 274.53L144.98 274.01Z" fill="black"/>
<path d="M136.97 276.2L141.4 274.99L142.21 274.76L143.03 274.54L142.87 275.09L142.72 275.63L141.91 275.85L141.09 276.08L137.22 277.14L137.09 276.68L136.97 276.2Z" fill="black"/>
<path d="M155.12 260.93C155.36 260.95 155.55 261.12 155.61 261.33C155.63 261.4 155.64 261.46 155.63 261.54L154.94 269.06L154.9 269.57L154.85 270.09L154.73 271.38L154.69 271.89V272.03H154.67L154.64 272.4L154.59 273L154.39 275.22C154.36 275.53 154.09 275.76 153.78 275.73C153.47 275.7 153.24 275.43 153.27 275.11L153.49 272.7L153.54 272.18L153.58 271.67L153.7 270.38L153.74 269.87L153.78 269.35L154.51 261.42C154.54 261.11 154.81 260.88 155.13 260.91L155.12 260.93Z" fill="black"/>
<path d="M151.68 267.09C151.91 267.12 152.08 267.28 152.14 267.49C152.16 267.57 152.17 267.65 152.16 267.72L151.87 269.88L151.8 270.4L151.73 270.92L151.55 272.23L151.48 272.76L151.41 273.28L151.01 276.24C150.97 276.55 150.69 276.76 150.38 276.73C150.07 276.69 149.85 276.4 149.9 276.09L150.24 273.6L150.31 273.08L150.38 272.56L150.56 271.25L150.63 270.73L150.7 270.2L151.06 267.57C151.1 267.26 151.38 267.04 151.69 267.08L151.68 267.09Z" fill="black"/>
<path d="M159.94 275.71C159.99 275.87 159.96 276.06 159.85 276.2C159.66 276.45 159.31 276.5 159.06 276.32L154.57 273.01C154.32 272.82 154.27 272.47 154.45 272.22C154.64 271.97 154.99 271.92 155.24 272.1L159.73 275.41C159.83 275.49 159.9 275.59 159.94 275.71Z" fill="black"/>
<path d="M142.96 271.98C143.01 272.14 142.98 272.33 142.87 272.47C142.68 272.72 142.33 272.77 142.08 272.59L137.59 269.28C137.34 269.1 137.29 268.74 137.47 268.49C137.66 268.24 138.01 268.19 138.26 268.37L142.75 271.68C142.85 271.76 142.92 271.86 142.96 271.98Z" fill="black"/>
<path d="M148.94 267.89C149.17 267.92 149.35 268.08 149.41 268.29C149.43 268.37 149.44 268.45 149.43 268.53L149.15 270.62L149.08 271.15L149.01 271.67L148.83 272.98L148.76 273.5L148.69 274.02L148.28 277.05C148.24 277.36 147.95 277.58 147.65 277.54C147.34 277.5 147.12 277.21 147.16 276.91L147.51 274.35L147.58 273.83L147.65 273.31L147.83 272L147.9 271.48L147.97 270.96L148.32 268.39C148.36 268.08 148.65 267.86 148.95 267.9L148.94 267.89Z" fill="black"/>
<path d="M146.28 268.67C146.51 268.7 146.68 268.86 146.74 269.07C146.76 269.15 146.77 269.22 146.76 269.3L146.48 271.33L146.41 271.85L146.34 272.37L146.16 273.68L146.09 274.2L146.02 274.73L145.6 277.82C145.56 278.13 145.27 278.35 144.97 278.31C144.66 278.27 144.44 277.98 144.48 277.68L144.83 275.06L144.9 274.54L144.97 274.02L145.15 272.71L145.22 272.18L145.29 271.66L145.63 269.16C145.67 268.85 145.96 268.63 146.26 268.67H146.28Z" fill="black"/>
<path d="M143.51 269.47C143.74 269.5 143.91 269.66 143.97 269.87C143.99 269.95 144 270.03 143.99 270.11L143.71 272.08L143.63 272.6L143.56 273.12L143.37 274.43L143.29 274.96L143.22 275.48L142.14 283.08C142.1 283.39 141.81 283.61 141.5 283.56C141.19 283.51 140.97 283.23 141.02 282.92L142.03 275.79L142.11 275.27L142.18 274.75L142.37 273.44L142.44 272.92L142.48 272.7L142.52 272.39L142.63 271.59L142.86 269.95C142.91 269.64 143.19 269.42 143.5 269.47H143.51Z" fill="black"/>
<path d="M178.54 262.07L178.85 261.45L180.39 260.94L181.91 260.43L187.97 258.4L188.12 258.86L188.24 259.33L181.27 261.67L179.74 262.18L178.21 262.69L178.52 262.08L178.54 262.07Z" fill="black"/>
<path d="M173.85 263.1L174.43 262.92L175.02 262.73L174.97 263.25L174.92 263.77L174.34 263.96L173.76 264.15L173.8 263.63L173.85 263.1Z" fill="black"/>
<path d="M171.15 263.96L171.74 263.77L172.32 263.59L172.28 264.12L172.23 264.64L171.65 264.82L171.06 265.01L171.11 264.49L171.15 263.96Z" fill="black"/>
<path d="M168.53 264.8L169.12 264.62L169.7 264.43L169.65 264.95L169.61 265.47L169.02 265.66L168.44 265.85L168.49 265.32L168.53 264.8Z" fill="black"/>
<path d="M157.96 268.27L164.09 266.25L164.1 266.24L164.97 265.96L165.7 265.72L165.96 265.63L166.97 265.3L166.77 265.88L166.58 266.45L165.57 266.78L164.58 267.11L158.25 269.2L158.1 268.74L157.96 268.27Z" fill="black"/>
<path d="M177.07 264.87L177.38 264.25L178.92 263.74L180.44 263.23L188.68 260.47L188.83 260.94L188.96 261.41L181.81 263.8L179.8 264.47L179.06 264.72L178.27 264.98L176.74 265.5L177.07 264.87Z" fill="black"/>
<path d="M173.64 265.47L174.22 265.28L174.8 265.09L174.76 265.62L174.71 266.15L174.13 266.33L173.55 266.51L173.59 265.99L173.64 265.47Z" fill="black"/>
<path d="M170.95 266.33L171.53 266.14L172.11 265.96L172.07 266.48L172.02 267L171.44 267.19L170.85 267.38L170.9 266.85L170.95 266.33Z" fill="black"/>
<path d="M168.33 267.17L168.91 266.98L169.49 266.79L169.45 267.32L169.4 267.84L168.82 268.03L168.23 268.22L168.28 267.69L168.33 267.17Z" fill="black"/>
<path d="M158.67 270.34L164.09 268.56L165.09 268.23L166.09 267.9L165.89 268.48L165.7 269.05L164.7 269.38L163.7 269.71L158.96 271.27L158.81 270.81L158.67 270.34Z" fill="black"/>
<path d="M177.84 253.63C178.08 253.63 178.27 253.8 178.35 254.01C178.37 254.07 178.38 254.14 178.38 254.22L178.04 261.76L178.02 262.27L178 262.79L177.94 264.09L177.92 264.6V264.74L177.9 265.11L177.87 265.71L177.77 267.94C177.76 268.25 177.49 268.49 177.18 268.48C176.87 268.46 176.63 268.2 176.64 267.89L176.75 265.48L176.77 264.96L176.79 264.45L176.85 263.15L176.87 262.64L176.89 262.12L177.25 254.16C177.26 253.85 177.53 253.61 177.84 253.62V253.63Z" fill="black"/>
<path d="M174.69 259.94C174.92 259.96 175.1 260.11 175.17 260.32C175.2 260.39 175.21 260.48 175.2 260.55L175.01 262.72L174.96 263.24L174.91 263.76L174.79 265.08L174.74 265.61L174.69 266.13L174.43 269.1C174.41 269.41 174.13 269.64 173.82 269.61C173.51 269.58 173.28 269.31 173.31 269L173.53 266.49L173.58 265.97L173.63 265.45L173.74 264.13L173.79 263.61L173.84 263.08L174.07 260.44C174.09 260.13 174.37 259.9 174.68 259.93L174.69 259.94Z" fill="black"/>
<path d="M183.34 268.17C183.4 268.33 183.38 268.52 183.28 268.67C183.11 268.93 182.76 269 182.5 268.83L177.86 265.73C177.6 265.56 177.53 265.21 177.7 264.95C177.87 264.69 178.22 264.62 178.48 264.79L183.12 267.89C183.23 267.96 183.3 268.06 183.34 268.18V268.17Z" fill="black"/>
<path d="M166.21 265.24C166.27 265.4 166.25 265.59 166.15 265.74C165.98 266 165.63 266.07 165.37 265.9L160.73 262.8C160.47 262.63 160.4 262.28 160.57 262.02C160.74 261.76 161.09 261.69 161.35 261.86L165.99 264.96C166.1 265.03 166.17 265.13 166.21 265.25V265.24Z" fill="black"/>
<path d="M171.99 260.87C172.22 260.89 172.41 261.04 172.48 261.25C172.51 261.32 172.52 261.41 172.51 261.49L172.33 263.6L172.28 264.13L172.23 264.65L172.12 265.97L172.08 266.49L172.03 267.01L171.76 270.05C171.74 270.36 171.46 270.59 171.15 270.56C170.84 270.53 170.61 270.26 170.64 269.95L170.87 267.38L170.92 266.86L170.97 266.34L171.08 265.02L171.13 264.5L171.18 263.98L171.4 261.4C171.43 261.09 171.7 260.85 172.01 260.89L171.99 260.87Z" fill="black"/>
<path d="M169.37 261.77C169.6 261.79 169.78 261.94 169.85 262.15C169.88 262.22 169.89 262.3 169.88 262.38L169.7 264.42L169.65 264.94L169.6 265.46L169.49 266.78L169.44 267.3L169.39 267.83L169.12 270.93C169.09 271.24 168.82 271.47 168.51 271.44C168.2 271.42 167.97 271.14 168 270.83L168.23 268.2L168.28 267.68L168.33 267.16L168.44 265.84L168.49 265.31L168.54 264.79L168.76 262.28C168.79 261.97 169.06 261.73 169.37 261.77Z" fill="black"/>
<path d="M166.64 262.71C166.87 262.73 167.05 262.88 167.12 263.09C167.15 263.16 167.16 263.25 167.15 263.33L166.96 265.31L166.91 265.84L166.86 266.36L166.73 267.68L166.68 268.21L166.63 268.73L165.91 276.38C165.89 276.69 165.61 276.92 165.3 276.89C164.99 276.86 164.76 276.59 164.79 276.28L165.46 269.11L165.51 268.58L165.56 268.06L165.69 266.74L165.74 266.22L165.76 266L165.79 265.69L165.87 264.89L166.02 263.24C166.05 262.93 166.32 262.7 166.64 262.73V262.71Z" fill="black"/>
<path d="M210.06 265.35L209.61 265.98L208.12 265.99L206.65 266L200.77 266.05V265.43L200.79 264.81L207.56 264.75L209.03 264.74L210.52 264.73L210.08 265.35H210.06Z" fill="black"/>
<path d="M215.16 265.95H214.38H213.59L213.86 265.33L214.12 264.71H214.9H215.68L215.42 265.33L215.16 265.95Z" fill="black"/>
<path d="M218.77 265.95L217.98 265.96H217.21L217.47 265.33L217.73 264.71L218.51 264.72H219.29L219.03 265.34L218.77 265.95Z" fill="black"/>
<path d="M222.28 265.96H221.5H220.72L220.98 265.34L221.24 264.72H222.03H222.8L222.54 265.35L222.28 265.96Z" fill="black"/>
<path d="M231.47 265.98L226.64 265.97H226.63H225.95H225.37L225.17 265.96L224.38 265.97L224.65 265.35L224.91 264.73H225.7H226.48L231.47 264.74V265.36V265.98Z" fill="black"/>
<path d="M212.12 262.54L211.68 263.16L210.19 263.18L208.71 263.19L200.71 263.26L200.72 262.64L200.73 262.02L207.67 261.96L209.62 261.94L210.33 261.93H211.09L212.58 261.91L212.12 262.54Z" fill="black"/>
<path d="M216.34 263.16H215.56H214.78L215.04 262.53L215.3 261.91L216.08 261.92H216.86L216.6 262.54L216.34 263.16Z" fill="black"/>
<path d="M219.95 263.16H219.16H218.39L218.64 262.54L218.91 261.92H219.68L220.47 261.93L220.21 262.55L219.95 263.16Z" fill="black"/>
<path d="M223.46 263.17H222.68H221.89L222.16 262.55L222.42 261.92L223.2 261.93H223.98L223.72 262.55L223.46 263.17Z" fill="black"/>
<path d="M231.42 263.18L227.15 263.17H226.36H225.58L225.85 262.55L226.11 261.93L226.89 261.94H227.68H231.41L231.42 262.56V263.18Z" fill="black"/>
<path d="M206.61 275.9C206.33 275.8 206.15 275.53 206.14 275.24C206.14 275.15 206.15 275.07 206.19 274.98L209.55 265.95L209.78 265.33L210.01 264.71L210.59 263.16L210.82 262.54L210.88 262.37L211.04 261.93L211.31 261.21L212.3 258.54C212.44 258.16 212.85 257.97 213.23 258.11C213.6 258.25 213.79 258.66 213.65 259.04L212.58 261.93L212.35 262.55L212.12 263.17L211.54 264.72L211.31 265.34L211.08 265.96L207.54 275.49C207.4 275.86 206.99 276.06 206.61 275.91V275.9Z" fill="black"/>
<path d="M212.9 269.46C212.63 269.35 212.47 269.09 212.46 268.81C212.46 268.71 212.48 268.61 212.51 268.51L213.59 265.94L213.85 265.32L214.11 264.7L214.77 263.14L215.03 262.51L215.29 261.89L216.77 258.38C216.92 258.01 217.34 257.84 217.71 257.99C218.07 258.14 218.25 258.57 218.09 258.93L216.84 261.89L216.58 262.51L216.32 263.13L215.67 264.69L215.41 265.31L215.15 265.94L213.84 269.06C213.69 269.43 213.27 269.6 212.9 269.45V269.46Z" fill="black"/>
<path d="M205.6 256.09C205.6 255.87 205.69 255.66 205.87 255.51C206.18 255.26 206.63 255.31 206.88 255.63L211.31 261.2C211.56 261.51 211.51 261.97 211.19 262.21C210.88 262.46 210.43 262.41 210.18 262.09L205.75 256.52C205.65 256.39 205.6 256.24 205.59 256.09H205.6Z" fill="black"/>
<path d="M225.28 266.34C225.28 266.12 225.37 265.91 225.55 265.76C225.86 265.51 226.31 265.56 226.56 265.88L230.99 271.45C231.24 271.76 231.18 272.22 230.87 272.46C230.56 272.71 230.11 272.66 229.86 272.34L225.43 266.77C225.33 266.64 225.28 266.49 225.27 266.34H225.28Z" fill="black"/>
<path d="M216.55 269.39C216.27 269.28 216.11 269.02 216.1 268.74C216.1 268.64 216.12 268.54 216.16 268.44L217.21 265.95L217.47 265.32L217.73 264.7L218.38 263.14L218.63 262.52L218.89 261.9L220.4 258.31C220.55 257.94 220.98 257.77 221.34 257.92C221.7 258.07 221.88 258.5 221.73 258.86L220.45 261.9L220.19 262.52L219.93 263.14L219.28 264.7L219.02 265.32L218.76 265.94L217.48 268.99C217.32 269.36 216.9 269.53 216.54 269.38L216.55 269.39Z" fill="black"/>
<path d="M220.08 269.32C219.81 269.21 219.65 268.95 219.64 268.67C219.64 268.57 219.65 268.47 219.69 268.37L220.71 265.96L220.97 265.34L221.23 264.72L221.88 263.16L222.14 262.54L222.4 261.91L223.94 258.25C224.1 257.88 224.52 257.71 224.88 257.86C225.25 258.01 225.42 258.44 225.27 258.8L223.96 261.91L223.7 262.53L223.44 263.15L222.79 264.71L222.53 265.34L222.27 265.96L221.02 268.93C220.86 269.3 220.44 269.47 220.08 269.32Z" fill="black"/>
<path d="M223.76 269.24C223.49 269.12 223.33 268.87 223.32 268.59C223.32 268.49 223.34 268.39 223.38 268.29L224.38 265.96L224.65 265.34L224.91 264.72L225.58 263.16L225.85 262.53L226.11 261.91L229.97 252.9C230.12 252.53 230.55 252.36 230.91 252.52C231.27 252.68 231.45 253.1 231.29 253.46L227.67 261.91L227.4 262.53L227.14 263.15L226.47 264.71L226.21 265.33L226.09 265.59L225.94 265.95L225.53 266.9L224.7 268.85C224.54 269.21 224.12 269.39 223.75 269.23L223.76 269.24Z" fill="black"/>
<path d="M240.79 263.37L240.52 264.06L239.2 264.35L237.89 264.65L232.67 265.84L232.54 265.25L232.43 264.65L238.43 263.28L239.74 262.99L241.07 262.68L240.8 263.37H240.79Z" fill="black"/>
<path d="M245.62 262.92L244.87 263.08L244.12 263.24L244.24 262.6L244.36 261.95L245.12 261.78L245.86 261.62L245.74 262.26L245.62 262.92Z" fill="black"/>
<path d="M249.08 262.16L248.33 262.33L247.59 262.49L247.7 261.84L247.82 261.19L248.57 261.03L249.33 260.86L249.2 261.51L249.08 262.16Z" fill="black"/>
<path d="M252.45 261.43L251.7 261.59L250.95 261.75L251.07 261.11L251.19 260.46L251.94 260.29L252.69 260.13L252.57 260.78L252.45 261.43Z" fill="black"/>
<path d="M261.26 259.51L256.63 260.52L255.97 260.66L255.42 260.78L255.22 260.82L254.46 260.99L254.59 260.34L254.71 259.69L255.47 259.53L256.22 259.36L261 258.32L261.13 258.91L261.26 259.51Z" fill="black"/>
<path d="M242.03 260.28L241.76 260.96L240.44 261.26L239.13 261.56L232.03 263.18L231.9 262.58L231.78 261.98L237.94 260.58L239.67 260.19L240.3 260.05L240.98 259.89L242.3 259.59L242.03 260.28Z" fill="black"/>
<path d="M246.16 259.99L245.42 260.15L244.67 260.32L244.79 259.66L244.91 259.02L245.66 258.86L246.4 258.69L246.28 259.34L246.16 259.99Z" fill="black"/>
<path d="M249.62 259.24L248.87 259.4L248.13 259.56L248.25 258.91L248.37 258.27L249.11 258.1L249.87 257.94L249.75 258.59L249.62 259.24Z" fill="black"/>
<path d="M252.99 258.5L252.24 258.66L251.49 258.83L251.61 258.18L251.73 257.53L252.48 257.37L253.23 257.21L253.11 257.85L252.99 258.5Z" fill="black"/>
<path d="M260.62 256.84L256.53 257.73L255.78 257.9L255.02 258.06L255.15 257.41L255.27 256.76L256.02 256.6L256.78 256.43L260.36 255.65L260.49 256.24L260.62 256.84Z" fill="black"/>
<path d="M239.52 274.25C239.23 274.21 239 273.99 238.93 273.71C238.91 273.63 238.9 273.54 238.92 273.45L240.24 264.08L240.33 263.44L240.42 262.79L240.65 261.18L240.74 260.54L240.76 260.36L240.82 259.9L240.92 259.15L241.31 256.38C241.36 255.99 241.72 255.72 242.11 255.77C242.5 255.83 242.76 256.18 242.71 256.57L242.29 259.57L242.2 260.22L242.11 260.86L241.88 262.47L241.79 263.11L241.71 263.76L240.32 273.64C240.27 274.02 239.91 274.3 239.52 274.24V274.25Z" fill="black"/>
<path d="M244.19 266.75C243.91 266.7 243.7 266.48 243.63 266.22C243.61 266.12 243.6 266.02 243.62 265.92L244.12 263.23L244.24 262.58L244.36 261.93L244.67 260.3L244.79 259.65L244.91 259L245.59 255.32C245.66 254.93 246.03 254.68 246.41 254.75C246.79 254.82 247.05 255.19 246.97 255.58L246.4 258.68L246.28 259.33L246.16 259.98L245.86 261.61L245.74 262.26L245.62 262.91L245.02 266.18C244.95 266.57 244.59 266.82 244.2 266.75H244.19Z" fill="black"/>
<path d="M234.39 255.47C234.34 255.26 234.39 255.04 234.53 254.86C234.78 254.56 235.22 254.51 235.52 254.76L240.94 259.17C241.24 259.42 241.29 259.86 241.04 260.16C240.79 260.46 240.35 260.51 240.05 260.26L234.63 255.85C234.5 255.75 234.42 255.61 234.39 255.47Z" fill="black"/>
<path d="M255.4 261.16C255.35 260.95 255.4 260.73 255.54 260.55C255.79 260.25 256.23 260.2 256.53 260.45L261.95 264.86C262.25 265.11 262.3 265.55 262.05 265.85C261.8 266.15 261.36 266.2 261.06 265.95L255.64 261.54C255.51 261.44 255.43 261.3 255.4 261.16Z" fill="black"/>
<path d="M247.67 265.92C247.38 265.87 247.17 265.65 247.11 265.39C247.09 265.29 247.08 265.19 247.11 265.09L247.59 262.49L247.71 261.84L247.83 261.19L248.13 259.56L248.24 258.91L248.36 258.26L249.06 254.5C249.13 254.11 249.5 253.86 249.88 253.93C250.26 254 250.52 254.37 250.45 254.75L249.86 257.93L249.74 258.58L249.62 259.23L249.32 260.86L249.2 261.51L249.08 262.16L248.49 265.35C248.42 265.74 248.05 265.99 247.67 265.92Z" fill="black"/>
<path d="M251.05 265.11C250.77 265.06 250.56 264.84 250.49 264.58C250.47 264.48 250.46 264.38 250.48 264.28L250.95 261.75L251.07 261.1L251.19 260.45L251.49 258.82L251.61 258.17L251.73 257.52L252.44 253.68C252.51 253.29 252.88 253.04 253.26 253.11C253.65 253.18 253.9 253.55 253.83 253.93L253.23 257.19L253.11 257.84L252.99 258.49L252.69 260.12L252.57 260.77L252.45 261.42L251.87 264.53C251.8 264.92 251.43 265.17 251.05 265.1V265.11Z" fill="black"/>
<path d="M254.56 264.26C254.28 264.2 254.07 263.99 254 263.73C253.98 263.63 253.97 263.53 254 263.43L254.47 260.98L254.6 260.33L254.72 259.68L255.03 258.05L255.16 257.39L255.28 256.74L257.09 247.29C257.16 246.9 257.53 246.65 257.92 246.73C258.31 246.81 258.56 247.17 258.48 247.56L256.79 256.42L256.66 257.07L256.54 257.72L256.23 259.35L256.11 260L256.05 260.28L255.98 260.66L255.79 261.65L255.4 263.69C255.32 264.07 254.96 264.33 254.57 264.25L254.56 264.26Z" fill="black"/>
<path d="M270.24 254.58L270.16 255.31L268.96 255.94L267.77 256.57L263.05 259.08L262.77 258.54L262.5 257.99L267.94 255.11L269.13 254.48L270.33 253.84L270.25 254.57L270.24 254.58Z" fill="black"/>
<path d="M274.79 252.89L274.11 253.24L273.43 253.59L273.37 252.94L273.32 252.28L274.01 251.92L274.68 251.57L274.74 252.23L274.79 252.89Z" fill="black"/>
<path d="M277.94 251.26L277.25 251.61L276.57 251.97L276.52 251.3L276.47 250.65L277.15 250.3L277.83 249.94L277.88 250.6L277.94 251.26Z" fill="black"/>
<path d="M281 249.68L280.32 250.02L279.63 250.38L279.58 249.72L279.53 249.07L280.21 248.71L280.89 248.36L280.95 249.02L281 249.68Z" fill="black"/>
<path d="M289.01 245.53L284.8 247.71L284.79 247.72L284.2 248.02L283.69 248.28L283.52 248.37L282.83 248.73L282.78 248.07L282.73 247.41L283.42 247.05L284.1 246.7L288.44 244.45L288.73 244.99L289.01 245.53Z" fill="black"/>
<path d="M270.63 251.27L270.55 252L269.35 252.64L268.16 253.26L261.73 256.67L261.45 256.13L261.18 255.58L266.77 252.63L268.33 251.8L268.91 251.5L269.52 251.17L270.72 250.53L270.63 251.27Z" fill="black"/>
<path d="M274.55 249.92L273.87 250.27L273.19 250.63L273.14 249.96L273.09 249.31L273.77 248.96L274.45 248.61L274.5 249.26L274.55 249.92Z" fill="black"/>
<path d="M277.7 248.29L277.01 248.65L276.34 248.99L276.28 248.34L276.23 247.68L276.91 247.33L277.6 246.98L277.65 247.64L277.7 248.29Z" fill="black"/>
<path d="M280.76 246.71L280.08 247.06L279.4 247.42L279.34 246.76L279.29 246.1L279.97 245.75L280.65 245.4L280.71 246.05L280.76 246.71Z" fill="black"/>
<path d="M287.7 243.12L283.97 245.04L283.29 245.4L282.61 245.76L282.56 245.09L282.51 244.43L283.19 244.08L283.88 243.73L287.13 242.04L287.42 242.58L287.7 243.12Z" fill="black"/>
<path d="M271.84 265.41C271.55 265.45 271.27 265.29 271.13 265.05C271.09 264.98 271.06 264.89 271.05 264.8L269.89 255.41L269.81 254.77L269.73 254.12L269.53 252.5L269.45 251.86L269.42 251.68L269.36 251.22L269.27 250.47L268.93 247.69C268.88 247.3 269.15 246.95 269.54 246.9C269.93 246.86 270.28 247.13 270.33 247.52L270.7 250.52L270.78 251.17L270.86 251.81L271.06 253.43L271.14 254.07L271.23 254.72L272.45 264.62C272.5 265 272.23 265.36 271.83 265.41H271.84Z" fill="black"/>
<path d="M274.41 256.96C274.13 256.99 273.86 256.83 273.74 256.59C273.69 256.5 273.66 256.41 273.65 256.31L273.43 253.59L273.38 252.93L273.33 252.27L273.2 250.62L273.15 249.96L273.1 249.3L272.8 245.57C272.76 245.18 273.06 244.84 273.45 244.81C273.83 244.78 274.18 245.07 274.21 245.46L274.46 248.6L274.51 249.26L274.56 249.92L274.69 251.57L274.74 252.23L274.79 252.89L275.05 256.2C275.09 256.59 274.8 256.93 274.4 256.96H274.41Z" fill="black"/>
<path d="M262 248.62C261.9 248.43 261.88 248.2 261.98 247.99C262.14 247.63 262.56 247.47 262.91 247.63L269.29 250.48C269.65 250.64 269.81 251.06 269.65 251.41C269.49 251.77 269.07 251.93 268.72 251.77L262.34 248.92C262.19 248.85 262.08 248.74 262.01 248.61L262 248.62Z" fill="black"/>
<path d="M283.78 248.65C283.68 248.46 283.66 248.23 283.76 248.02C283.92 247.66 284.34 247.5 284.69 247.66L291.07 250.51C291.43 250.67 291.59 251.09 291.43 251.44C291.27 251.8 290.85 251.96 290.5 251.8L284.12 248.95C283.97 248.88 283.86 248.77 283.79 248.64L283.78 248.65Z" fill="black"/>
<path d="M277.55 255.25C277.26 255.28 277 255.12 276.87 254.89C276.82 254.8 276.79 254.71 276.79 254.6L276.58 251.96L276.53 251.3L276.48 250.64L276.35 248.99L276.29 248.33L276.24 247.67L275.94 243.86C275.9 243.47 276.2 243.13 276.59 243.1C276.97 243.07 277.32 243.36 277.35 243.75L277.61 246.98L277.66 247.64L277.71 248.3L277.84 249.95L277.89 250.61L277.94 251.27L278.2 254.5C278.23 254.89 277.94 255.24 277.55 255.26V255.25Z" fill="black"/>
<path d="M280.6 253.59C280.32 253.62 280.05 253.46 279.93 253.22C279.88 253.13 279.85 253.04 279.84 252.94L279.64 250.38L279.59 249.72L279.54 249.06L279.41 247.41L279.36 246.75L279.31 246.09L279 242.2C278.97 241.81 279.26 241.47 279.65 241.44C280.04 241.4 280.38 241.7 280.41 242.09L280.68 245.39L280.73 246.05L280.78 246.71L280.91 248.36L280.96 249.02L281.01 249.68L281.26 252.83C281.29 253.22 281 253.57 280.61 253.59H280.6Z" fill="black"/>
<path d="M283.77 251.87C283.48 251.89 283.22 251.74 283.1 251.5C283.05 251.41 283.02 251.32 283.02 251.21L282.83 248.73L282.78 248.07L282.73 247.41L282.61 245.75L282.56 245.08L282.51 244.42L281.8 234.83C281.76 234.44 282.06 234.1 282.45 234.07C282.84 234.04 283.18 234.33 283.21 234.72L283.88 243.71L283.93 244.37L283.98 245.03L284.1 246.69L284.15 247.35L284.17 247.63L284.2 248.01L284.27 249.02L284.43 251.09C284.46 251.48 284.17 251.82 283.77 251.85V251.87Z" fill="black"/>
<path d="M295.42 234.23L295.77 234.88L295.12 236.07L294.49 237.26L291.96 241.97L291.43 241.68L290.9 241.38L293.81 235.95L294.45 234.77L295.08 233.57L295.42 234.22V234.23Z" fill="black"/>
<path d="M298.25 230.29L297.88 230.95L297.51 231.63L297.1 231.12L296.69 230.6L297.06 229.92L297.43 229.25L297.84 229.77L298.25 230.29Z" fill="black"/>
<path d="M299.95 227.18L299.58 227.85L299.22 228.52L298.8 228.01L298.39 227.49L298.77 226.82L299.13 226.14L299.54 226.66L299.95 227.18Z" fill="black"/>
<path d="M301.61 224.16L301.24 224.83L300.87 225.5L300.46 224.99L300.05 224.47L300.42 223.79L300.79 223.12L301.2 223.64L301.61 224.16Z" fill="black"/>
<path d="M305.95 216.25L303.67 220.41L303.34 221L303.07 221.5L302.97 221.67L302.6 222.35L302.19 221.83L301.78 221.31L302.16 220.63L302.52 219.96L304.88 215.67L305.41 215.95L305.95 216.25Z" fill="black"/>
<path d="M293.9 231.27L294.24 231.91L293.6 233.11L292.96 234.29L289.53 240.71L288.99 240.42L288.46 240.11L291.45 234.55L292.29 232.98L292.59 232.41L292.92 231.8L293.56 230.6L293.9 231.27Z" fill="black"/>
<path d="M296.4 227.96L296.03 228.63L295.67 229.3L295.25 228.78L294.84 228.26L295.21 227.6L295.58 226.92L295.99 227.44L296.4 227.96Z" fill="black"/>
<path d="M298.1 224.85L297.73 225.53L297.36 226.19L296.95 225.68L296.54 225.16L296.91 224.49L297.28 223.82L297.69 224.33L298.1 224.85Z" fill="black"/>
<path d="M299.76 221.83L299.39 222.5L299.02 223.18L298.61 222.66L298.2 222.14L298.57 221.47L298.94 220.8L299.35 221.31L299.76 221.83Z" fill="black"/>
<path d="M303.51 214.98L301.5 218.65L301.13 219.33L300.76 220.01L300.35 219.48L299.94 218.96L300.31 218.29L300.68 217.61L302.44 214.4L302.98 214.69L303.51 214.98Z" fill="black"/>
<path d="M302.8 242.32C302.58 242.52 302.26 242.54 302.01 242.41C301.93 242.37 301.87 242.32 301.81 242.25L295.61 235.11L295.18 234.63L294.75 234.14L293.69 232.91L293.26 232.43L293.14 232.3L292.84 231.94L292.35 231.37L290.52 229.26C290.26 228.96 290.29 228.52 290.59 228.26C290.89 228.01 291.33 228.04 291.59 228.33L293.57 230.61L294 231.1L294.43 231.58L295.49 232.81L295.92 233.29L296.35 233.78L302.89 241.31C303.14 241.6 303.12 242.05 302.82 242.31L302.8 242.32Z" fill="black"/>
<path d="M300.21 233.88C299.99 234.06 299.68 234.08 299.45 233.95C299.36 233.9 299.28 233.84 299.22 233.77L297.52 231.63L297.11 231.11L296.7 230.59L295.67 229.29L295.25 228.77L294.84 228.25L292.51 225.32C292.26 225.02 292.32 224.57 292.62 224.33C292.92 224.09 293.37 224.14 293.61 224.45L295.57 226.91L295.98 227.43L296.39 227.95L297.42 229.24L297.83 229.76L298.25 230.28L300.32 232.88C300.57 233.18 300.52 233.63 300.21 233.87V233.88Z" fill="black"/>
<path d="M285.26 233.88C285.07 233.78 284.93 233.6 284.89 233.37C284.82 232.98 285.08 232.62 285.47 232.55L292.35 231.36C292.74 231.29 293.1 231.55 293.17 231.94C293.24 232.33 292.98 232.69 292.59 232.76L285.71 233.95C285.55 233.98 285.4 233.95 285.26 233.88Z" fill="black"/>
<path d="M303.34 221.75C303.15 221.65 303.01 221.47 302.97 221.24C302.9 220.85 303.16 220.49 303.55 220.42L310.43 219.23C310.82 219.16 311.18 219.42 311.25 219.81C311.32 220.2 311.06 220.56 310.67 220.63L303.79 221.82C303.63 221.85 303.48 221.82 303.34 221.75Z" fill="black"/>
<path d="M301.86 230.71C301.64 230.9 301.33 230.91 301.09 230.79C301 230.74 300.92 230.68 300.86 230.6L299.21 228.53L298.79 228.01L298.38 227.49L297.35 226.2L296.94 225.68L296.53 225.16L294.15 222.17C293.9 221.87 293.96 221.42 294.26 221.18C294.56 220.94 295.01 220.99 295.25 221.29L297.26 223.82L297.67 224.34L298.08 224.86L299.11 226.15L299.52 226.67L299.93 227.19L301.95 229.73C302.19 230.04 302.15 230.49 301.84 230.72L301.86 230.71Z" fill="black"/>
<path d="M303.47 227.63C303.25 227.81 302.94 227.83 302.71 227.7C302.62 227.65 302.54 227.6 302.48 227.52L300.88 225.51L300.47 224.99L300.06 224.47L299.03 223.18L298.62 222.66L298.2 222.14L295.77 219.09C295.53 218.78 295.58 218.34 295.88 218.1C296.18 217.85 296.63 217.91 296.87 218.21L298.93 220.8L299.34 221.32L299.75 221.84L300.78 223.13L301.2 223.65L301.61 224.17L303.57 226.64C303.81 226.95 303.77 227.4 303.46 227.63H303.47Z" fill="black"/>
<path d="M305.13 224.43C304.9 224.61 304.6 224.63 304.37 224.5C304.28 224.45 304.2 224.39 304.14 224.31L302.6 222.35L302.19 221.83L301.78 221.31L300.75 220L300.34 219.47L299.93 218.95L293.99 211.38C293.74 211.08 293.8 210.63 294.11 210.39C294.42 210.15 294.86 210.2 295.1 210.51L300.67 217.6L301.08 218.12L301.49 218.64L302.52 219.95L302.93 220.47L303.1 220.69L303.34 220.99L303.96 221.78L305.25 223.41C305.49 223.72 305.44 224.16 305.13 224.41V224.43Z" fill="black"/>
<path d="M307.09 203.98L307.67 204.44L307.56 205.79L307.47 207.13L307.08 212.47L306.47 212.42L305.87 212.35L306.31 206.21L306.42 204.87L306.51 203.52L307.09 203.97V203.98Z" fill="black"/>
<path d="M308.07 199.23L308 199.99L307.94 200.76L307.36 200.45L306.78 200.15L306.84 199.38L306.9 198.62L307.48 198.92L308.07 199.23Z" fill="black"/>
<path d="M308.36 195.7L308.3 196.46L308.24 197.23L307.65 196.92L307.06 196.62L307.13 195.85L307.19 195.09L307.77 195.39L308.36 195.7Z" fill="black"/>
<path d="M308.65 192.26L308.58 193.02L308.52 193.79L307.93 193.49L307.35 193.18L307.41 192.41L307.47 191.65L308.06 191.96L308.65 192.26Z" fill="black"/>
<path d="M309.39 183.27L309 188V188.01L308.94 188.67L308.9 189.24L308.88 189.44L308.81 190.21L308.23 189.9L307.65 189.59L307.71 188.82L307.77 188.06L308.18 183.18L308.78 183.22L309.39 183.27Z" fill="black"/>
<path d="M304.49 201.89L305.07 202.35L304.97 203.7L304.87 205.04L304.34 212.3L303.73 212.25L303.13 212.19L303.59 205.89L303.72 204.12L303.77 203.47L303.82 202.78L303.91 201.43L304.49 201.89Z" fill="black"/>
<path d="M305.43 197.85L305.37 198.62L305.31 199.38L304.72 199.07L304.13 198.77L304.2 198.01L304.26 197.25L304.84 197.55L305.43 197.85Z" fill="black"/>
<path d="M305.72 194.32L305.66 195.09L305.59 195.85L305.01 195.55L304.43 195.24L304.49 194.48L304.55 193.71L305.14 194.02L305.72 194.32Z" fill="black"/>
<path d="M306 190.89L305.94 191.65L305.88 192.42L305.3 192.11L304.71 191.81L304.77 191.05L304.84 190.28L305.42 190.58L306 190.89Z" fill="black"/>
<path d="M306.65 183.11L306.3 187.28L306.24 188.05L306.18 188.82L305.59 188.5L305.01 188.2L305.07 187.43L305.13 186.66L305.44 183.01L306.04 183.06L306.65 183.11Z" fill="black"/>
<path d="M317.12 208.38C317 208.65 316.72 208.8 316.44 208.78C316.36 208.78 316.27 208.76 316.19 208.72L307.62 204.72L307.03 204.45L306.44 204.17L304.97 203.48L304.38 203.21L304.21 203.14L303.79 202.94L303.11 202.62L300.57 201.44C300.21 201.28 300.06 200.86 300.22 200.5C300.39 200.15 300.8 200 301.16 200.16L303.9 201.44L304.49 201.72L305.08 201.99L306.55 202.68L307.14 202.95L307.73 203.23L316.77 207.45C317.12 207.61 317.28 208.03 317.11 208.39L317.12 208.38Z" fill="black"/>
<path d="M311.32 201.72C311.19 201.97 310.92 202.11 310.65 202.1C310.55 202.1 310.45 202.07 310.36 202.03L307.94 200.77L307.36 200.47L306.78 200.17L305.31 199.4L304.72 199.09L304.14 198.79L300.82 197.06C300.47 196.88 300.34 196.46 300.52 196.11C300.7 195.77 301.13 195.63 301.47 195.81L304.26 197.26L304.84 197.56L305.42 197.86L306.89 198.62L307.47 198.92L308.06 199.23L311.01 200.76C311.36 200.94 311.5 201.36 311.31 201.71L311.32 201.72Z" fill="black"/>
<path d="M297.66 207.79C297.45 207.78 297.24 207.67 297.12 207.48C296.9 207.16 296.99 206.72 297.31 206.5L303.11 202.61C303.44 202.39 303.87 202.48 304.09 202.8C304.31 203.12 304.22 203.56 303.9 203.78L298.1 207.67C297.97 207.76 297.81 207.8 297.66 207.79Z" fill="black"/>
<path d="M309.25 189.36C309.04 189.35 308.83 189.24 308.71 189.05C308.49 188.73 308.58 188.29 308.9 188.07L314.7 184.18C315.02 183.96 315.46 184.05 315.68 184.37C315.9 184.69 315.81 185.13 315.49 185.35L309.69 189.24C309.56 189.33 309.4 189.37 309.25 189.36Z" fill="black"/>
<path d="M311.54 198.14C311.41 198.4 311.14 198.54 310.87 198.52C310.77 198.52 310.67 198.49 310.58 198.44L308.23 197.22L307.64 196.91L307.06 196.61L305.59 195.85L305.01 195.55L304.43 195.25L301.04 193.48C300.69 193.3 300.56 192.87 300.74 192.53C300.92 192.19 301.35 192.05 301.69 192.23L304.56 193.72L305.14 194.02L305.72 194.32L307.19 195.08L307.77 195.38L308.35 195.68L311.23 197.17C311.58 197.35 311.72 197.78 311.53 198.12L311.54 198.14Z" fill="black"/>
<path d="M311.75 194.68C311.62 194.93 311.35 195.07 311.08 195.06C310.98 195.06 310.88 195.03 310.79 194.99L308.51 193.8L307.93 193.5L307.35 193.2L305.88 192.44L305.3 192.14L304.71 191.83L301.25 190.03C300.9 189.85 300.77 189.42 300.95 189.08C301.13 188.73 301.56 188.6 301.9 188.78L304.84 190.31L305.42 190.61L306 190.91L307.47 191.67L308.06 191.98L308.64 192.28L311.44 193.74C311.79 193.92 311.93 194.35 311.74 194.69L311.75 194.68Z" fill="black"/>
<path d="M311.97 191.08C311.83 191.33 311.57 191.47 311.3 191.46C311.2 191.46 311.1 191.43 311.01 191.38L308.81 190.22L308.23 189.91L307.65 189.61L306.18 188.83L305.59 188.52L305.01 188.22L296.51 183.72C296.16 183.54 296.03 183.11 296.21 182.77C296.39 182.43 296.82 182.29 297.16 182.47L305.14 186.68L305.72 186.99L306.3 187.29L307.77 188.07L308.35 188.37L308.6 188.51L308.94 188.69L309.83 189.16L311.67 190.13C312.01 190.31 312.15 190.74 311.97 191.09V191.08Z" fill="black"/>
<path d="M304.85 171.55L305.57 171.72L306.06 172.98L306.55 174.24L308.47 179.23L307.9 179.44L307.33 179.64L305.11 173.9L304.63 172.64L304.14 171.38L304.85 171.54V171.55Z" fill="black"/>
<path d="M303.71 166.84L303.98 167.55L304.25 168.27L303.59 168.25L302.93 168.22L302.66 167.5L302.39 166.79L303.05 166.81L303.71 166.84Z" fill="black"/>
<path d="M302.46 163.52L302.73 164.24L303.01 164.95L302.34 164.93L301.68 164.91L301.42 164.19L301.15 163.47L301.8 163.49L302.46 163.52Z" fill="black"/>
<path d="M301.25 160.29L301.52 161.01L301.79 161.73L301.13 161.7L300.48 161.68L300.2 160.96L299.93 160.24L300.6 160.27L301.25 160.29Z" fill="black"/>
<path d="M298.08 151.85L299.75 156.29L299.99 156.92L300.19 157.45L300.25 157.64L300.53 158.37L299.87 158.33L299.21 158.31L298.93 157.58L298.66 156.87L296.94 152.28L297.51 152.06L298.08 151.85Z" fill="black"/>
<path d="M301.62 170.77L302.33 170.94L302.82 172.2L303.3 173.46L305.93 180.25L305.36 180.46L304.78 180.66L302.51 174.77L301.87 173.12L301.64 172.51L301.38 171.86L300.89 170.6L301.62 170.77Z" fill="black"/>
<path d="M300.74 166.72L301.01 167.44L301.28 168.15L300.61 168.13L299.95 168.1L299.69 167.39L299.42 166.67L300.08 166.7L300.74 166.72Z" fill="black"/>
<path d="M299.49 163.41L299.76 164.13L300.03 164.84L299.37 164.82L298.71 164.79L298.44 164.08L298.17 163.35L298.83 163.38L299.49 163.41Z" fill="black"/>
<path d="M298.28 160.18L298.55 160.9L298.82 161.62L298.16 161.59L297.5 161.57L297.23 160.85L296.96 160.13L297.62 160.16L298.28 160.18Z" fill="black"/>
<path d="M295.53 152.87L297 156.79L297.28 157.51L297.55 158.23L296.88 158.2L296.22 158.18L295.96 157.45L295.68 156.73L294.4 153.3L294.96 153.08L295.53 152.87Z" fill="black"/>
<path d="M315.8 171.24C315.8 171.54 315.62 171.79 315.35 171.9C315.27 171.93 315.19 171.95 315.1 171.95L305.64 172H305H304.35H302.72L302.08 172.01H301.9H301.44H300.69L297.89 172.03C297.5 172.03 297.18 171.72 297.17 171.33C297.17 170.94 297.48 170.63 297.88 170.62L300.91 170.6H301.56H302.2H303.83L304.47 170.59H305.12L315.1 170.54C315.49 170.54 315.81 170.85 315.81 171.25L315.8 171.24Z" fill="black"/>
<path d="M307.71 167.69C307.71 167.98 307.52 168.22 307.27 168.32C307.18 168.36 307.08 168.37 306.98 168.38L304.25 168.28L303.59 168.25L302.93 168.22L301.27 168.15L300.61 168.13L299.95 168.1L296.21 167.96C295.82 167.95 295.52 167.62 295.53 167.23C295.54 166.84 295.88 166.54 296.27 166.55L299.42 166.67L300.08 166.7L300.74 166.73L302.39 166.79L303.05 166.82L303.71 166.84L307.03 166.97C307.42 166.98 307.73 167.31 307.71 167.7V167.69Z" fill="black"/>
<path d="M297.96 179.03C297.76 179.11 297.53 179.1 297.33 178.98C296.99 178.78 296.88 178.35 297.09 178.01L300.67 172.01C300.87 171.67 301.31 171.57 301.64 171.77C301.98 171.97 302.09 172.4 301.88 172.74L298.3 178.74C298.22 178.88 298.09 178.98 297.96 179.03Z" fill="black"/>
<path d="M300.56 157.41C300.36 157.49 300.13 157.48 299.93 157.36C299.59 157.16 299.48 156.73 299.69 156.39L303.27 150.39C303.47 150.05 303.91 149.95 304.24 150.15C304.58 150.35 304.69 150.78 304.48 151.12L300.9 157.12C300.82 157.26 300.69 157.36 300.56 157.41Z" fill="black"/>
<path d="M306.38 164.37C306.38 164.66 306.19 164.9 305.94 165C305.85 165.04 305.75 165.05 305.65 165.05L303 164.95L302.34 164.93L301.68 164.9L300.03 164.84L299.37 164.81L298.71 164.78L294.89 164.63C294.5 164.62 294.2 164.28 294.21 163.9C294.22 163.51 294.56 163.21 294.94 163.22L298.17 163.34L298.83 163.37L299.49 163.4L301.14 163.46L301.8 163.49L302.46 163.52L305.7 163.64C306.1 163.66 306.4 163.98 306.38 164.37Z" fill="black"/>
<path d="M305.09 161.15C305.09 161.43 304.9 161.68 304.65 161.78C304.56 161.82 304.46 161.84 304.36 161.84L301.79 161.74L301.13 161.71L300.47 161.68L298.82 161.62L298.16 161.59L297.5 161.57L293.6 161.42C293.2 161.4 292.91 161.07 292.92 160.69C292.93 160.3 293.27 160 293.65 160.01L296.96 160.13L297.62 160.16L298.28 160.19L299.93 160.25L300.59 160.27L301.25 160.3L304.41 160.42C304.81 160.44 305.11 160.76 305.09 161.15Z" fill="black"/>
<path d="M303.75 157.8C303.74 158.09 303.56 158.33 303.31 158.43C303.22 158.47 303.12 158.48 303.02 158.48L300.53 158.37L299.87 158.34L299.21 158.31L297.55 158.24L296.88 158.21L296.22 158.18L286.61 157.75C286.22 157.74 285.92 157.4 285.93 157.01C285.94 156.62 286.28 156.32 286.67 156.33L295.68 156.72L296.34 156.75L297 156.78L298.66 156.85L299.32 156.88L299.6 156.9H299.99L301 156.96L303.08 157.05C303.47 157.07 303.77 157.4 303.76 157.79L303.75 157.8Z" fill="black"/>
<path d="M288.06 142.43L288.74 142.15L289.86 142.91L290.98 143.66L295.41 146.65L295.07 147.16L294.71 147.65L289.6 144.21L288.49 143.45L287.36 142.7L288.04 142.42L288.06 142.43Z" fill="black"/>
<path d="M284.42 139.21L285.05 139.65L285.68 140.09L285.13 140.44L284.57 140.8L283.94 140.36L283.31 139.93L283.86 139.58L284.42 139.21Z" fill="black"/>
<path d="M281.5 137.21L282.13 137.65L282.76 138.08L282.21 138.44L281.65 138.79L281.02 138.36L280.39 137.92L280.94 137.57L281.5 137.21Z" fill="black"/>
<path d="M278.66 135.25L279.29 135.69L279.92 136.13L279.37 136.48L278.81 136.84L278.18 136.4L277.55 135.97L278.11 135.61L278.66 135.25Z" fill="black"/>
<path d="M271.23 130.15L275.13 132.83H275.14L275.69 133.21L276.16 133.54L276.32 133.65L276.96 134.09L276.4 134.44L275.85 134.8L275.21 134.36L274.57 133.93L270.54 131.15L270.88 130.65L271.23 130.15Z" fill="black"/>
<path d="M284.95 143.64L285.63 143.37L286.76 144.13L287.87 144.88L293.91 148.95L293.56 149.45L293.21 149.94L287.97 146.41L286.5 145.42L285.96 145.06L285.39 144.67L284.26 143.92L284.95 143.64Z" fill="black"/>
<path d="M281.91 140.83L282.54 141.26L283.18 141.69L282.62 142.05L282.06 142.4L281.44 141.97L280.8 141.54L281.36 141.18L281.91 140.83Z" fill="black"/>
<path d="M278.99 138.82L279.63 139.25L280.25 139.68L279.7 140.04L279.15 140.4L278.52 139.97L277.89 139.53L278.44 139.17L278.99 138.82Z" fill="black"/>
<path d="M276.15 136.87L276.79 137.3L277.42 137.73L276.87 138.09L276.31 138.45L275.68 138.01L275.05 137.58L275.6 137.22L276.15 136.87Z" fill="black"/>
<path d="M269.72 132.44L273.17 134.81L273.81 135.25L274.44 135.68L273.88 136.04L273.32 136.4L272.69 135.96L272.06 135.52L269.04 133.44L269.38 132.94L269.72 132.44Z" fill="black"/>
<path d="M296.85 135.91C297.02 136.15 297.02 136.47 296.86 136.7C296.81 136.77 296.76 136.83 296.68 136.89L288.95 142.34L288.42 142.71L287.89 143.09L286.56 144.03L286.03 144.4L285.88 144.51L285.5 144.77L284.89 145.2L282.6 146.81C282.28 147.04 281.84 146.96 281.61 146.64C281.39 146.32 281.46 145.88 281.78 145.65L284.25 143.91L284.78 143.53L285.31 143.16L286.64 142.22L287.17 141.85L287.7 141.47L295.86 135.72C296.18 135.5 296.62 135.57 296.85 135.89V135.91Z" fill="black"/>
<path d="M288.19 137.63C288.35 137.87 288.33 138.17 288.19 138.4C288.14 138.48 288.06 138.55 287.98 138.61L285.68 140.09L285.13 140.44L284.58 140.8L283.18 141.69L282.62 142.05L282.07 142.4L278.92 144.42C278.59 144.64 278.16 144.54 277.94 144.21C277.73 143.89 277.83 143.44 278.16 143.24L280.81 141.54L281.36 141.19L281.91 140.84L283.3 139.94L283.85 139.59L284.41 139.23L287.2 137.44C287.53 137.22 287.97 137.32 288.18 137.65L288.19 137.63Z" fill="black"/>
<path d="M286.68 152.5C286.56 152.68 286.37 152.8 286.14 152.82C285.75 152.85 285.41 152.55 285.38 152.16L284.89 145.19C284.86 144.8 285.16 144.46 285.55 144.43C285.94 144.4 286.28 144.7 286.31 145.09L286.8 152.06C286.81 152.22 286.77 152.37 286.69 152.5H286.68Z" fill="black"/>
<path d="M276.44 133.29C276.32 133.47 276.13 133.59 275.9 133.61C275.51 133.64 275.17 133.34 275.14 132.95L274.65 125.98C274.62 125.59 274.92 125.25 275.31 125.22C275.7 125.19 276.04 125.49 276.07 125.88L276.56 132.85C276.57 133.01 276.53 133.16 276.45 133.29H276.44Z" fill="black"/>
<path d="M285.2 135.67C285.36 135.91 285.35 136.22 285.2 136.44C285.15 136.52 285.07 136.59 284.99 136.65L282.76 138.08L282.2 138.44L281.65 138.79L280.26 139.69L279.71 140.04L279.16 140.39L275.94 142.46C275.61 142.68 275.17 142.57 274.96 142.25C274.75 141.93 274.85 141.48 275.17 141.27L277.89 139.52L278.44 139.17L278.99 138.82L280.38 137.92L280.93 137.57L281.48 137.22L284.21 135.47C284.54 135.26 284.98 135.35 285.19 135.68L285.2 135.67Z" fill="black"/>
<path d="M282.3 133.76C282.46 134 282.44 134.3 282.3 134.53C282.25 134.61 282.18 134.69 282.09 134.74L279.93 136.13L279.38 136.49L278.83 136.84L277.44 137.74L276.89 138.09L276.33 138.45L273.05 140.56C272.72 140.77 272.28 140.67 272.07 140.35C271.85 140.02 271.96 139.58 272.28 139.37L275.06 137.58L275.61 137.23L276.16 136.88L277.55 135.98L278.11 135.62L278.66 135.27L281.32 133.56C281.65 133.35 282.09 133.44 282.3 133.77V133.76Z" fill="black"/>
<path d="M279.28 131.78C279.43 132.02 279.42 132.32 279.28 132.55C279.23 132.63 279.15 132.7 279.07 132.76L276.97 134.09L276.41 134.44L275.86 134.79L274.46 135.68L273.9 136.04L273.35 136.39L265.22 141.54C264.89 141.76 264.45 141.65 264.25 141.32C264.05 140.99 264.14 140.55 264.47 140.35L272.08 135.52L272.64 135.17L273.19 134.82L274.59 133.93L275.14 133.58L275.38 133.43L275.7 133.22L276.55 132.68L278.31 131.57C278.64 131.36 279.08 131.46 279.29 131.79L279.28 131.78Z" fill="black"/>
<path d="M258.99 127.51L259.52 127L260.84 127.3L262.16 127.6L267.37 128.78L267.23 129.37L267.08 129.96L261.07 128.6L259.76 128.3L258.44 128L258.97 127.5L258.99 127.51Z" fill="black"/>
<path d="M254.43 125.82L255.17 126L255.93 126.18L255.54 126.71L255.15 127.24L254.4 127.07L253.65 126.89L254.04 126.36L254.43 125.82Z" fill="black"/>
<path d="M250.98 125.01L251.73 125.19L252.48 125.36L252.09 125.9L251.7 126.43L250.96 126.25L250.21 126.08L250.59 125.54L250.98 125.01Z" fill="black"/>
<path d="M247.63 124.22L248.37 124.4L249.12 124.57L248.74 125.1L248.35 125.64L247.6 125.46L246.85 125.29L247.24 124.75L247.63 124.22Z" fill="black"/>
<path d="M238.85 122.14L243.47 123.23L244.13 123.39L244.68 123.52L244.87 123.57L245.63 123.74L245.23 124.27L244.84 124.81L244.09 124.63L243.34 124.46L238.58 123.33L238.71 122.73L238.85 122.14Z" fill="black"/>
<path d="M256.53 129.76L257.07 129.26L258.39 129.56L259.7 129.86L266.8 131.47L266.66 132.06L266.51 132.65L260.35 131.25L258.62 130.86L257.99 130.71L257.31 130.56L255.98 130.26L256.53 129.76Z" fill="black"/>
<path d="M252.68 128.23L253.42 128.41L254.17 128.58L253.78 129.12L253.39 129.65L252.65 129.47L251.9 129.3L252.29 128.76L252.68 128.23Z" fill="black"/>
<path d="M249.23 127.42L249.98 127.59L250.72 127.77L250.34 128.3L249.95 128.83L249.2 128.66L248.45 128.48L248.84 127.95L249.23 127.42Z" fill="black"/>
<path d="M245.88 126.63L246.62 126.8L247.37 126.97L246.98 127.51L246.59 128.04L245.85 127.86L245.1 127.69L245.49 127.16L245.88 126.63Z" fill="black"/>
<path d="M238.28 124.83L242.35 125.79L243.1 125.97L243.86 126.14L243.46 126.68L243.07 127.21L242.32 127.03L241.57 126.85L238 126.01L238.14 125.42L238.28 124.83Z" fill="black"/>
<path d="M264.83 118.24C265.08 118.4 265.19 118.7 265.13 118.98C265.11 119.06 265.08 119.14 265.03 119.22L259.79 127.1L259.44 127.64L259.08 128.18L258.18 129.53L257.83 130.07L257.73 130.22L257.47 130.6L257.05 131.23L255.5 133.56C255.28 133.89 254.85 133.98 254.52 133.76C254.2 133.54 254.11 133.11 254.33 132.78L256 130.26L256.36 129.72L256.71 129.18L257.61 127.83L257.96 127.29L258.32 126.75L263.84 118.44C264.05 118.12 264.49 118.02 264.82 118.25L264.83 118.24Z" fill="black"/>
<path d="M257.38 122.98C257.61 123.15 257.71 123.43 257.65 123.7C257.63 123.8 257.59 123.89 257.53 123.97L255.92 126.18L255.53 126.71L255.14 127.24L254.16 128.58L253.77 129.12L253.38 129.65L251.18 132.67C250.95 132.99 250.51 133.05 250.19 132.83C249.88 132.6 249.81 132.15 250.04 131.84L251.89 129.29L252.28 128.76L252.67 128.23L253.64 126.89L254.03 126.36L254.42 125.82L256.38 123.14C256.61 122.82 257.05 122.75 257.37 122.98H257.38Z" fill="black"/>
<path d="M261.35 137.4C261.31 137.61 261.17 137.79 260.96 137.89C260.61 138.06 260.19 137.91 260.02 137.55L257.04 131.23C256.87 130.87 257.03 130.45 257.38 130.29C257.73 130.12 258.15 130.27 258.32 130.63L261.3 136.95C261.37 137.1 261.38 137.25 261.35 137.4Z" fill="black"/>
<path d="M244.85 123.19C244.81 123.4 244.67 123.58 244.46 123.68C244.11 123.85 243.69 123.7 243.52 123.34L240.54 117.02C240.37 116.67 240.53 116.24 240.88 116.08C241.23 115.91 241.65 116.06 241.82 116.42L244.8 122.74C244.87 122.89 244.88 123.04 244.85 123.19Z" fill="black"/>
<path d="M253.88 122.23C254.12 122.4 254.22 122.69 254.16 122.95C254.14 123.05 254.1 123.14 254.04 123.22L252.48 125.36L252.09 125.9L251.7 126.43L250.73 127.77L250.35 128.3L249.96 128.83L247.71 131.92C247.48 132.24 247.03 132.3 246.72 132.08C246.41 131.85 246.34 131.4 246.56 131.09L248.47 128.47L248.86 127.94L249.25 127.41L250.22 126.07L250.61 125.54L251 125.01L252.91 122.39C253.14 122.07 253.59 122 253.9 122.23H253.88Z" fill="black"/>
<path d="M250.48 121.51C250.71 121.68 250.81 121.96 250.75 122.23C250.73 122.33 250.69 122.42 250.63 122.5L249.12 124.58L248.73 125.11L248.34 125.64L247.37 126.98L246.98 127.51L246.59 128.05L244.29 131.2C244.06 131.52 243.61 131.58 243.3 131.36C242.98 131.13 242.92 130.68 243.14 130.37L245.09 127.69L245.48 127.16L245.87 126.63L246.84 125.29L247.23 124.75L247.62 124.22L249.48 121.67C249.71 121.35 250.16 121.28 250.47 121.51H250.48Z" fill="black"/>
<path d="M246.95 120.75C247.18 120.92 247.28 121.2 247.22 121.47C247.2 121.57 247.16 121.66 247.1 121.74L245.62 123.75L245.22 124.28L244.83 124.81L243.84 126.15L243.44 126.69L243.05 127.22L237.34 134.96C237.11 135.28 236.66 135.34 236.35 135.11C236.04 134.88 235.97 134.43 236.2 134.12L241.55 126.86L241.95 126.33L242.34 125.8L243.33 124.46L243.72 123.93L243.89 123.71L244.12 123.4L244.72 122.59L245.95 120.92C246.18 120.61 246.63 120.54 246.94 120.77L246.95 120.75Z" fill="black"/>
<path d="M227.11 123.11L227.53 122.51L228.88 122.53L230.23 122.54L235.58 122.6L235.56 123.2L235.54 123.81L229.38 123.75L228.03 123.73L226.68 123.72L227.09 123.11H227.11Z" fill="black"/>
<path d="M222.3 122.43L223.07 122.45L223.84 122.46L223.57 123.06L223.3 123.66L222.53 123.65L221.77 123.64L222.03 123.03L222.3 122.43Z" fill="black"/>
<path d="M218.76 122.36L219.53 122.37L220.29 122.39L220.02 122.99L219.76 123.6L218.99 123.58L218.22 123.56L218.49 122.96L218.76 122.36Z" fill="black"/>
<path d="M215.31 122.28L216.08 122.31L216.85 122.32L216.58 122.92L216.31 123.52L215.54 123.51L214.78 123.49L215.05 122.89L215.31 122.28Z" fill="black"/>
<path d="M206.3 122.1L211.04 122.2L211.71 122.21L212.28 122.22L212.48 122.23L213.26 122.24L212.98 122.85L212.71 123.45L211.93 123.43L211.17 123.42L206.28 123.32V122.71L206.3 122.1Z" fill="black"/>
<path d="M225.18 125.83L225.6 125.23L226.96 125.24L228.3 125.26L235.58 125.34L235.57 125.95L235.54 126.56L229.23 126.49L227.45 126.47L226.81 126.46L226.11 126.45L224.75 126.44L225.18 125.83Z" fill="black"/>
<path d="M221.1 125.15L221.86 125.16L222.62 125.18L222.35 125.79L222.09 126.39L221.32 126.37L220.56 126.35L220.83 125.75L221.1 125.15Z" fill="black"/>
<path d="M217.55 125.08L218.32 125.09L219.08 125.11L218.82 125.71L218.55 126.31L217.79 126.3L217.02 126.28L217.28 125.68L217.55 125.08Z" fill="black"/>
<path d="M214.11 125.01L214.87 125.02L215.64 125.04L215.37 125.64L215.11 126.25L214.34 126.23L213.57 126.21L213.84 125.61L214.11 125.01Z" fill="black"/>
<path d="M206.3 124.85L210.49 124.93L211.26 124.95L212.03 124.96L211.75 125.57L211.48 126.17L210.71 126.15L209.94 126.14L206.28 126.06L206.29 125.46L206.3 124.85Z" fill="black"/>
<path d="M230.87 112.83C231.15 112.94 231.32 113.2 231.32 113.49C231.32 113.57 231.31 113.66 231.27 113.74L227.81 122.54L227.58 123.14L227.34 123.75L226.74 125.26L226.51 125.86L226.45 126.03L226.28 126.46L226 127.16L224.98 129.76C224.84 130.13 224.43 130.31 224.06 130.16C223.7 130.01 223.52 129.61 223.66 129.24L224.77 126.42L225.01 125.81L225.24 125.21L225.84 123.7L226.07 123.1L226.3 122.49L229.95 113.21C230.09 112.85 230.5 112.66 230.87 112.81V112.83Z" fill="black"/>
<path d="M224.58 119.03C224.84 119.14 225 119.4 225 119.67C225 119.77 224.98 119.87 224.94 119.96L223.83 122.46L223.56 123.06L223.29 123.66L222.61 125.17L222.34 125.78L222.07 126.38L220.55 129.8C220.39 130.16 219.98 130.32 219.62 130.16C219.27 130 219.1 129.58 219.27 129.23L220.55 126.35L220.82 125.75L221.09 125.15L221.76 123.64L222.03 123.04L222.3 122.43L223.65 119.39C223.81 119.03 224.22 118.87 224.58 119.03Z" fill="black"/>
<path d="M231.5 132.28C231.5 132.49 231.4 132.7 231.22 132.84C230.91 133.08 230.47 133.02 230.23 132.71L225.99 127.16C225.75 126.85 225.81 126.4 226.12 126.17C226.43 125.93 226.87 125.99 227.11 126.3L231.35 131.85C231.45 131.98 231.5 132.13 231.5 132.28Z" fill="black"/>
<path d="M212.38 121.86C212.38 122.07 212.28 122.28 212.1 122.42C211.79 122.66 211.35 122.6 211.11 122.29L206.87 116.74C206.63 116.43 206.69 115.99 207 115.75C207.31 115.51 207.75 115.57 207.99 115.88L212.23 121.43C212.33 121.56 212.38 121.71 212.38 121.86Z" fill="black"/>
<path d="M221 119.03C221.27 119.14 221.42 119.4 221.43 119.67C221.43 119.77 221.41 119.87 221.37 119.96L220.3 122.38L220.03 122.99L219.76 123.59L219.09 125.1L218.83 125.7L218.56 126.3L217.01 129.8C216.85 130.16 216.43 130.32 216.08 130.16C215.73 130 215.56 129.58 215.72 129.23L217.03 126.27L217.3 125.67L217.57 125.07L218.24 123.56L218.51 122.96L218.78 122.36L220.09 119.4C220.25 119.04 220.67 118.88 221.02 119.04L221 119.03Z" fill="black"/>
<path d="M217.53 119.04C217.79 119.15 217.95 119.41 217.95 119.68C217.95 119.78 217.94 119.88 217.89 119.97L216.85 122.32L216.58 122.92L216.31 123.52L215.64 125.03L215.37 125.63L215.1 126.24L213.52 129.81C213.36 130.17 212.94 130.33 212.59 130.17C212.23 130.01 212.07 129.59 212.23 129.24L213.57 126.21L213.84 125.61L214.11 125.01L214.78 123.5L215.05 122.89L215.32 122.29L216.6 119.4C216.76 119.04 217.18 118.88 217.53 119.04Z" fill="black"/>
<path d="M213.92 119.04C214.18 119.16 214.34 119.41 214.34 119.68C214.34 119.78 214.32 119.88 214.28 119.97L213.26 122.24L212.98 122.84L212.71 123.44L212.03 124.95L211.75 125.56L211.48 126.16L207.52 134.93C207.36 135.29 206.94 135.45 206.59 135.28C206.24 135.11 206.07 134.7 206.24 134.35L209.94 126.13L210.22 125.53L210.49 124.93L211.17 123.42L211.44 122.82L211.56 122.57L211.72 122.22L212.14 121.3L212.99 119.4C213.15 119.05 213.57 118.88 213.93 119.05L213.92 119.04Z" fill="black"/>
<defs>
<filter id="filter0_d_120_3377" x="0" y="0" width="502.42" height="393.38" filterUnits="userSpaceOnUse" color-interpolation-filters="sRGB">
<feFlood flood-opacity="0" result="BackgroundImageFix"/>
<feColorMatrix in="SourceAlpha" type="matrix" values="0 0 0 0 0 0 0 0 0 0 0 0 0 0 0 0 0 0 127 0" result="hardAlpha"/>
<feOffset dx="10" dy="4"/>
<feGaussianBlur stdDeviation="2"/>
<feComposite in2="hardAlpha" operator="out"/>
<feColorMatrix type="matrix" values="0 0 0 0 0 0 0 0 0 0 0 0 0 0 0 0 0 0 1 0"/>
<feBlend mode="normal" in2="BackgroundImageFix" result="effect1_dropShadow_120_3377"/>
<feBlend mode="normal" in="SourceGraphic" in2="effect1_dropShadow_120_3377" result="shape"/>
</filter>
<filter id="filter1_d_120_3377" x="127.438" y="107.55" width="213.461" height="180.064" filterUnits="userSpaceOnUse" color-interpolation-filters="sRGB">
<feFlood flood-opacity="0" result="BackgroundImageFix"/>
<feColorMatrix in="SourceAlpha" type="matrix" values="0 0 0 0 0 0 0 0 0 0 0 0 0 0 0 0 0 0 127 0" result="hardAlpha"/>
<feOffset dx="10" dy="4"/>
<feGaussianBlur stdDeviation="2"/>
<feComposite in2="hardAlpha" operator="out"/>
<feColorMatrix type="matrix" values="0 0 0 0 0 0 0 0 0 0 0 0 0 0 0 0 0 0 1 0"/>
<feBlend mode="normal" in2="BackgroundImageFix" result="effect1_dropShadow_120_3377"/>
<feBlend mode="normal" in="SourceGraphic" in2="effect1_dropShadow_120_3377" result="shape"/>
</filter>
</defs>
</svg>
