<svg width="88" height="88" viewBox="0 0 88 88" fill="none" xmlns="http://www.w3.org/2000/svg">
<path d="M11.9702 19.6473H76.0306C76.4295 19.6473 76.752 19.3249 76.752 18.9259C76.752 18.527 76.4295 18.2046 76.0306 18.2046H11.9702C11.5713 18.2046 11.2489 18.527 11.2489 18.9259C11.2489 19.3249 11.5713 19.6473 11.9702 19.6473Z" fill="#003334"/>
<path d="M76.0298 34.7168H62.3363C61.9374 34.7168 61.615 35.0392 61.615 35.4382C61.615 35.8371 61.9374 36.1595 62.3363 36.1595H76.0298C76.4287 36.1595 76.7511 35.8371 76.7511 35.4382C76.7511 35.0392 76.4287 34.7168 76.0298 34.7168Z" fill="#003334"/>
<path d="M11.9702 36.1595H25.6637C26.0626 36.1595 26.385 35.8371 26.385 35.4382C26.385 35.0392 26.0626 34.7168 25.6637 34.7168H11.9702C11.5713 34.7168 11.2489 35.0392 11.2489 35.4382C11.2489 35.8371 11.5713 36.1595 11.9702 36.1595Z" fill="#003334"/>
<path d="M62.0646 52.6707H76.0299C76.4289 52.6707 76.7513 52.3483 76.7513 51.9494C76.7513 51.5505 76.4289 51.228 76.0299 51.228H62.0646C61.6657 51.228 61.3432 51.5505 61.3432 51.9494C61.3432 52.3483 61.6657 52.6707 62.0646 52.6707Z" fill="#003334"/>
<path d="M11.9702 52.6707H25.9356C26.3345 52.6707 26.6569 52.3483 26.6569 51.9494C26.6569 51.5505 26.3345 51.228 25.9356 51.228H11.9702C11.5713 51.228 11.2489 51.5505 11.2489 51.9494C11.2489 52.3483 11.5713 52.6707 11.9702 52.6707Z" fill="#003334"/>
<path d="M76.0298 67.7402H11.9702C11.5713 67.7402 11.2489 68.0627 11.2489 68.4616C11.2489 68.8605 11.5713 69.183 11.9702 69.183H76.0306C76.4295 69.183 76.752 68.8605 76.752 68.4616C76.752 68.0627 76.4287 67.7402 76.0298 67.7402Z" fill="#003334"/>
<path d="M44 57.9553C51.9331 57.9553 58.3873 51.4203 58.3873 43.3884C58.3873 35.3551 51.9331 28.8208 44 28.8208C36.0669 28.8208 29.6127 35.3558 29.6127 43.3884C29.6127 51.4203 36.0669 57.9553 44 57.9553ZM45.8126 34.8265V41.9177H51.7785L42.6915 51.9497L44 44.4257H38.5607L45.8126 34.8265Z" fill="#003334"/>
<path d="M44 62.8479C54.599 62.8479 63.2215 54.1179 63.2215 43.3877C63.2215 32.6576 54.599 23.9282 44 23.9282C33.401 23.9282 24.7785 32.6576 24.7785 43.3877C24.7785 54.1179 33.401 62.8479 44 62.8479ZM44 27.3776C52.7294 27.3776 59.8299 34.5597 59.8299 43.3877C59.8299 52.2151 52.7285 59.3972 44 59.3972C35.2715 59.3972 28.1701 52.2151 28.1701 43.3877C28.1701 34.5596 35.2706 27.3776 44 27.3776Z" fill="#003334"/>
<path d="M85.4004 16.5898H79.35C77.9168 16.5898 76.7504 17.7555 76.7504 19.1895V19.2752C76.7504 20.7085 77.9161 21.8748 79.35 21.8748H85.4004C86.8336 21.8748 88 20.7092 88 19.2752V19.1895C88 17.7553 86.8343 16.5898 85.4004 16.5898Z" fill="#003334"/>
<path d="M85.4004 33.1021H79.35C77.9168 33.1021 76.7504 34.2677 76.7504 35.701V35.7876C76.7504 37.2209 77.9161 38.3872 79.35 38.3872H85.4004C86.8336 38.3872 88 37.2216 88 35.7876V35.701C88 34.2677 86.8343 33.1021 85.4004 33.1021Z" fill="#003334"/>
<path d="M85.4004 49.6128H79.35C77.9168 49.6128 76.7504 50.7784 76.7504 52.2124V52.299C76.7504 53.7316 77.9161 54.8979 79.35 54.8979H85.4004C86.8336 54.8979 88 53.7323 88 52.299V52.2124C88 50.7784 86.8343 49.6128 85.4004 49.6128Z" fill="#003334"/>
<path d="M85.4004 66.125H79.35C77.9168 66.125 76.7504 67.2907 76.7504 68.7246V68.8104C76.7504 70.2436 77.9161 71.41 79.35 71.41H85.4004C86.8336 71.41 88 70.2443 88 68.8104V68.7246C88 67.2907 86.8343 66.125 85.4004 66.125Z" fill="#003334"/>
<path d="M2.59961 21.8741H8.64995C10.0832 21.8741 11.2496 20.7085 11.2496 19.2745V19.1895C11.2489 17.7555 10.0832 16.5898 8.64927 16.5898H2.59961C1.16566 16.5898 0 17.7553 0 19.1893V19.275C0 20.7085 1.16566 21.8741 2.59961 21.8741Z" fill="#003334"/>
<path d="M2.59961 38.3862H8.64995C10.0832 38.3862 11.2496 37.2206 11.2496 35.7866V35.7C11.2496 34.2674 10.0839 33.1011 8.64995 33.1011H2.59961C1.16566 33.1019 0 34.2676 0 35.7V35.7866C0 37.2206 1.16566 38.3862 2.59961 38.3862Z" fill="#003334"/>
<path d="M2.59961 54.897H8.64995C10.0832 54.897 11.2496 53.7313 11.2496 52.2981V52.2114C11.2496 50.7782 10.0839 49.6118 8.64995 49.6118H2.59961C1.16566 49.6127 0 50.7783 0 52.2123V52.2989C0 53.7313 1.16566 54.897 2.59961 54.897Z" fill="#003334"/>
<path d="M8.64927 66.125H2.59961C1.16566 66.125 0 67.2907 0 68.7239V68.8097C0 70.2436 1.16566 71.4093 2.59961 71.4093H8.64995C10.0832 71.4093 11.2496 70.2436 11.2496 68.8097V68.7239C11.2489 67.2907 10.0832 66.125 8.64927 66.125Z" fill="#003334"/>
</svg>
