<svg width="88" height="88" viewBox="0 0 88 88" fill="none" xmlns="http://www.w3.org/2000/svg">
<path d="M86.625 14.4375V73.5625H82.5V68.0625V46.0625V25.4375V14.4375H86.625Z" fill="#656D78"/>
<path d="M5.5 68.0625V73.5625H1.375V14.4375H5.5V25.4375V46.0625V68.0625Z" fill="#656D78"/>
<path d="M1.375 74.9402C0.614625 74.9402 0 74.3256 0 73.5652V14.4375C0 13.6771 0.614625 13.0625 1.375 13.0625C2.13538 13.0625 2.75 13.6771 2.75 14.4375V73.5652C2.75 74.3256 2.13538 74.9402 1.375 74.9402Z" fill="#003334"/>
<path d="M5.49863 74.9404C4.73825 74.9404 4.12363 74.3258 4.12363 73.5654V14.4404C4.12363 13.6801 4.73825 13.0654 5.49863 13.0654C6.259 13.0654 6.87363 13.6801 6.87363 14.4404V73.5654C6.87363 74.3258 6.259 74.9404 5.49863 74.9404Z" fill="#003334"/>
<path d="M16.5055 74.9406C15.7451 74.9406 15.1305 74.3259 15.1305 73.5656V14.4351C15.1305 13.6747 15.7451 13.0601 16.5055 13.0601C17.2659 13.0601 17.8805 13.6747 17.8805 14.4351V73.5656C17.8805 74.3259 17.2659 74.9406 16.5055 74.9406Z" fill="#003334"/>
<path d="M22.0069 74.9404C21.2465 74.9404 20.6319 74.3258 20.6319 73.5654V18.5654C20.6319 17.8051 21.2465 17.1904 22.0069 17.1904C22.7672 17.1904 23.3819 17.8051 23.3819 18.5654V73.5654C23.3819 74.3258 22.7672 74.9404 22.0069 74.9404Z" fill="#003334"/>
<path d="M22.0069 74.9404C21.2465 74.9404 20.6319 74.3258 20.6319 73.5654V18.5654C20.6319 17.8051 21.2465 17.1904 22.0069 17.1904C22.7672 17.1904 23.3819 17.8051 23.3819 18.5654V73.5654C23.3819 74.3258 22.7672 74.9404 22.0069 74.9404Z" fill="#003334"/>
<path d="M11 74.9404C10.2396 74.9404 9.625 74.3258 9.625 73.5654V18.5654C9.625 17.8051 10.2396 17.1904 11 17.1904C11.7604 17.1904 12.375 17.8051 12.375 18.5654V73.5654C12.375 74.3258 11.7604 74.9404 11 74.9404Z" fill="#003334"/>
<path d="M27.5082 74.9406C26.7479 74.9406 26.1332 74.3259 26.1332 73.5656V14.4351C26.1332 13.6747 26.7479 13.0601 27.5082 13.0601C28.2686 13.0601 28.8832 13.6747 28.8832 14.4351V73.5656C28.8832 74.3259 28.2686 74.9406 27.5082 74.9406Z" fill="#003334"/>
<path d="M33.0096 74.9404C32.2492 74.9404 31.6346 74.3258 31.6346 73.5654V18.5654C31.6346 17.8051 32.2492 17.1904 33.0096 17.1904C33.77 17.1904 34.3846 17.8051 34.3846 18.5654V73.5654C34.3846 74.3258 33.77 74.9404 33.0096 74.9404Z" fill="#003334"/>
<path d="M38.511 74.9406C37.7506 74.9406 37.136 74.3259 37.136 73.5656V14.4351C37.136 13.6747 37.7506 13.0601 38.511 13.0601C39.2714 13.0601 39.886 13.6747 39.886 14.4351V73.5656C39.886 74.3259 39.2714 74.9406 38.511 74.9406Z" fill="#003334"/>
<path d="M44.0124 74.9404C43.252 74.9404 42.6374 74.3258 42.6374 73.5654V18.5654C42.6374 17.8051 43.252 17.1904 44.0124 17.1904C44.7728 17.1904 45.3874 17.8051 45.3874 18.5654V73.5654C45.3874 74.3258 44.7728 74.9404 44.0124 74.9404Z" fill="#003334"/>
<path d="M49.5137 74.9406C48.7534 74.9406 48.1387 74.3259 48.1387 73.5656V14.4351C48.1387 13.6747 48.7534 13.0601 49.5137 13.0601C50.2741 13.0601 50.8887 13.6747 50.8887 14.4351V73.5656C50.8887 74.3259 50.2741 74.9406 49.5137 74.9406Z" fill="#003334"/>
<path d="M55.0151 74.9404C54.2548 74.9404 53.6401 74.3258 53.6401 73.5654V18.5654C53.6401 17.8051 54.2548 17.1904 55.0151 17.1904C55.7755 17.1904 56.3901 17.8051 56.3901 18.5654V73.5654C56.3901 74.3258 55.7741 74.9404 55.0151 74.9404Z" fill="#003334"/>
<path d="M60.5165 74.9406C59.7561 74.9406 59.1415 74.3259 59.1415 73.5656V14.4351C59.1415 13.6747 59.7561 13.0601 60.5165 13.0601C61.2769 13.0601 61.8915 13.6747 61.8915 14.4351V73.5656C61.8915 74.3259 61.2755 74.9406 60.5165 74.9406Z" fill="#003334"/>
<path d="M66.0179 74.9404C65.2575 74.9404 64.6429 74.3258 64.6429 73.5654V18.5654C64.6429 17.8051 65.2575 17.1904 66.0179 17.1904C66.7783 17.1904 67.3929 17.8051 67.3929 18.5654V73.5654C67.3929 74.3258 66.7769 74.9404 66.0179 74.9404Z" fill="#003334"/>
<path d="M71.5193 74.9406C70.7589 74.9406 70.1443 74.3259 70.1443 73.5656V14.4351C70.1443 13.6747 70.7589 13.0601 71.5193 13.0601C72.2796 13.0601 72.8943 13.6747 72.8943 14.4351V73.5656C72.8943 74.3259 72.2783 74.9406 71.5193 74.9406Z" fill="#003334"/>
<path d="M77.0206 74.9404C76.2603 74.9404 75.6456 74.3258 75.6456 73.5654V18.5654C75.6456 17.8051 76.2603 17.1904 77.0206 17.1904C77.781 17.1904 78.3956 17.8051 78.3956 18.5654V73.5654C78.3956 74.3258 77.7796 74.9404 77.0206 74.9404Z" fill="#003334"/>
<path d="M5.49863 74.9404H1.375C0.614625 74.9404 0 74.3258 0 73.5654C0 72.8051 0.614625 72.1904 1.375 72.1904H5.49863C6.259 72.1904 6.87363 72.8051 6.87363 73.5654C6.87363 74.3258 6.259 74.9404 5.49863 74.9404Z" fill="#003334"/>
<path d="M82.5013 74.9402C81.741 74.9402 81.1263 74.3256 81.1263 73.5652V14.4375C81.1263 13.6771 81.741 13.0625 82.5013 13.0625C83.2617 13.0625 83.8763 13.6771 83.8763 14.4375V73.5652C83.8763 74.3256 83.2617 74.9402 82.5013 74.9402Z" fill="#003334"/>
<path d="M86.625 74.9404C85.8646 74.9404 85.25 74.3258 85.25 73.5654V14.4404C85.25 13.6801 85.8646 13.0654 86.625 13.0654C87.3854 13.0654 88 13.6801 88 14.4404V73.5654C88 74.3258 87.3854 74.9404 86.625 74.9404Z" fill="#003334"/>
<path d="M86.625 74.9404H82.5013C81.741 74.9404 81.1263 74.3258 81.1263 73.5654C81.1263 72.8051 81.741 72.1904 82.5013 72.1904H86.625C87.3853 72.1904 88 72.8051 88 73.5654C88 74.3258 87.3853 74.9404 86.625 74.9404Z" fill="#003334"/>
<path d="M82.5014 26.8154H5.49863C4.73825 26.8154 4.12363 26.2008 4.12363 25.4404C4.12363 24.6801 4.73825 24.0654 5.49863 24.0654H82.5014C83.2617 24.0654 83.8764 24.6801 83.8764 25.4404C83.8764 26.2008 83.2617 26.8154 82.5014 26.8154Z" fill="#003334"/>
<path d="M82.5014 69.4404H5.49863C4.73825 69.4404 4.12363 68.8258 4.12363 68.0654C4.12363 67.3051 4.73825 66.6904 5.49863 66.6904H82.5014C83.2617 66.6904 83.8764 67.3051 83.8764 68.0654C83.8764 68.8258 83.2617 69.4404 82.5014 69.4404Z" fill="#003334"/>
<path d="M82.5014 47.4404H5.49863C4.73825 47.4404 4.12363 46.8258 4.12363 46.0654C4.12363 45.3051 4.73825 44.6904 5.49863 44.6904H82.5014C83.2617 44.6904 83.8764 45.3051 83.8764 46.0654C83.8764 46.8258 83.2617 47.4404 82.5014 47.4404Z" fill="#003334"/>
<path d="M86.625 15.8154H82.5013C81.741 15.8154 81.1263 15.2008 81.1263 14.4404C81.1263 13.6801 81.741 13.0654 82.5013 13.0654H86.625C87.3853 13.0654 88 13.6801 88 14.4404C88 15.2008 87.3853 15.8154 86.625 15.8154Z" fill="#003334"/>
<path d="M5.49863 15.8125H1.375C0.614625 15.8125 0 15.1979 0 14.4375C0 13.6771 0.614625 13.0625 1.375 13.0625H5.49863C6.259 13.0625 6.87363 13.6771 6.87363 14.4375C6.87363 15.1979 6.259 15.8125 5.49863 15.8125Z" fill="#003334"/>
<path d="M17.8063 17.112C17.4543 17.112 17.1023 16.9773 16.8341 16.7092L15.5334 15.407C14.9958 14.8694 14.9958 13.999 15.5334 13.4628C16.071 12.9252 16.94 12.9252 17.4776 13.4628L18.7784 14.7649C19.316 15.3025 19.316 16.1729 18.7784 16.7092C18.5103 16.9787 18.1583 17.112 17.8063 17.112Z" fill="#003334"/>
<path d="M15.1635 17.1505C14.8115 17.1505 14.4595 17.0158 14.1914 16.7477C13.6537 16.21 13.6537 15.3397 14.1914 14.8034L15.5334 13.4628C16.071 12.9252 16.94 12.9252 17.4776 13.4628C18.0152 14.0004 18.0152 14.8708 17.4776 15.407L16.1356 16.7477C15.8675 17.0158 15.5155 17.1505 15.1635 17.1505Z" fill="#003334"/>
<path d="M28.8214 17.112C28.4694 17.112 28.1174 16.9773 27.8493 16.7092L26.5485 15.407C26.0109 14.8694 26.0109 13.999 26.5485 13.4628C27.0861 12.9252 27.9551 12.9252 28.4928 13.4628L29.7935 14.7649C30.3311 15.3025 30.3311 16.1729 29.7935 16.7092C29.5254 16.9787 29.1734 17.112 28.8214 17.112Z" fill="#003334"/>
<path d="M26.1786 17.1505C25.8266 17.1505 25.4746 17.0158 25.2065 16.7477C24.6689 16.21 24.6689 15.3397 25.2065 14.8034L26.5485 13.4628C27.0861 12.9252 27.9551 12.9252 28.4928 13.4628C29.0304 14.0004 29.0304 14.8708 28.4928 15.407L27.1508 16.7477C26.8826 17.0158 26.5306 17.1505 26.1786 17.1505Z" fill="#003334"/>
<path d="M39.8365 17.112C39.4845 17.112 39.1325 16.9773 38.8644 16.7092L37.5636 15.407C37.026 14.8694 37.026 13.999 37.5636 13.4628C38.1012 12.9252 38.9702 12.9252 39.5079 13.4628L40.8086 14.7649C41.3462 15.3025 41.3462 16.1729 40.8086 16.7092C40.5391 16.9787 40.1885 17.112 39.8365 17.112Z" fill="#003334"/>
<path d="M37.1938 17.1505C36.8418 17.1505 36.4898 17.0158 36.2216 16.7477C35.684 16.21 35.684 15.3397 36.2216 14.8034L37.5636 13.4628C38.1013 12.9252 38.9703 12.9252 39.5079 13.4628C40.0455 14.0004 40.0455 14.8708 39.5079 15.407L38.1659 16.7477C37.8978 17.0158 37.5458 17.1505 37.1938 17.1505Z" fill="#003334"/>
<path d="M50.8503 17.112C50.4983 17.112 50.1463 16.9773 49.8781 16.7092L48.5774 15.407C48.0398 14.8694 48.0398 13.999 48.5774 13.4628C49.115 12.9252 49.984 12.9252 50.5216 13.4628L51.8224 14.7649C52.36 15.3025 52.36 16.1729 51.8224 16.7092C51.5543 16.9787 51.2023 17.112 50.8503 17.112Z" fill="#003334"/>
<path d="M48.2089 17.1505C47.8569 17.1505 47.5049 17.0158 47.2367 16.7477C46.6991 16.21 46.6991 15.3397 47.2367 14.8034L48.5787 13.4628C49.1164 12.9252 49.9854 12.9252 50.523 13.4628C51.0606 14.0004 51.0606 14.8708 50.523 15.407L49.181 16.7477C48.9115 17.0158 48.5595 17.1505 48.2089 17.1505Z" fill="#003334"/>
<path d="M61.8654 17.112C61.5134 17.112 61.1614 16.9773 60.8932 16.7092L59.5925 15.407C59.0549 14.8694 59.0549 13.999 59.5925 13.4628C60.1301 12.9252 60.9991 12.9252 61.5367 13.4628L62.8375 14.7649C63.3751 15.3025 63.3751 16.1729 62.8375 16.7092C62.5694 16.9787 62.2174 17.112 61.8654 17.112Z" fill="#003334"/>
<path d="M59.2226 17.1505C58.8706 17.1505 58.5186 17.0158 58.2505 16.7477C57.7129 16.21 57.7129 15.3397 58.2505 14.8034L59.5925 13.4628C60.1301 12.9252 60.9991 12.9252 61.5368 13.4628C62.0744 14.0004 62.0744 14.8708 61.5368 15.407L60.1948 16.7477C59.9266 17.0158 59.5746 17.1505 59.2226 17.1505Z" fill="#003334"/>
<path d="M72.8805 17.112C72.5285 17.112 72.1765 16.9773 71.9084 16.7092L70.6076 15.407C70.07 14.8694 70.07 13.999 70.6076 13.4628C71.1453 12.9252 72.0142 12.9252 72.5519 13.4628L73.8526 14.7649C74.3902 15.3025 74.3902 16.1729 73.8526 16.7092C73.5845 16.9787 73.2325 17.112 72.8805 17.112Z" fill="#003334"/>
<path d="M70.2377 17.1505C69.8857 17.1505 69.5337 17.0158 69.2656 16.7477C68.728 16.21 68.728 15.3397 69.2656 14.8034L70.6076 13.4628C71.1452 12.9252 72.0142 12.9252 72.5519 13.4628C73.0895 14.0004 73.0895 14.8708 72.5519 15.407L71.2099 16.7477C70.9417 17.0158 70.5897 17.1505 70.2377 17.1505Z" fill="#003334"/>
</svg>
