<svg width="88" height="88" viewBox="0 0 88 88" fill="none" xmlns="http://www.w3.org/2000/svg">
<g clip-path="url(#clip0_31_292)">
<path d="M87.7215 25.6194C87.4174 25.1676 86.9105 24.897 86.3653 24.897H84.5123C84.8399 24.2552 85.0246 23.5294 85.0246 22.7614C85.0246 20.1617 82.9097 18.0469 80.3108 18.0469C77.7111 18.0469 75.5963 20.1617 75.5963 22.7614C75.5963 23.5294 75.7809 24.2552 76.1085 24.897H73.6372C73.0584 24.897 72.518 25.2072 72.2266 25.7067C71.9345 26.2062 71.9292 26.8293 72.2132 27.3335L74.3414 31.1107C74.5818 31.5371 75.0007 31.8291 75.4734 31.915V36.0118C73.3579 35.942 71.6183 35.699 70.1513 35.327C70.0842 35.3029 70.015 35.2847 69.9432 35.2727C66.127 34.2548 64.1827 32.3454 62.1618 30.3608C59.3695 27.6188 56.4873 24.7883 49.1054 24.5009C48.8885 23.0675 47.6484 21.9658 46.1553 21.9658H41.845C40.3518 21.9658 39.1118 23.0675 38.8949 24.5009C31.513 24.7883 28.6307 27.6188 25.8384 30.3608C23.8176 32.3454 21.8732 34.2548 18.0571 35.2727C17.9859 35.2847 17.9161 35.3029 17.8489 35.327C16.3819 35.699 14.6424 35.942 12.5268 36.0118V31.915C12.9995 31.8291 13.4184 31.5371 13.6595 31.1094L15.7871 27.3335C16.0704 26.8293 16.0657 26.2062 15.7737 25.7067C15.4823 25.2072 14.9418 24.897 14.3631 24.897H11.8917C12.2193 24.2559 12.404 23.5294 12.404 22.7614C12.404 20.1617 10.2891 18.0469 7.6895 18.0469C5.09056 18.0469 2.97502 20.1617 2.97502 22.7614C2.97502 23.5294 3.16033 24.2552 3.48729 24.897H1.63493C1.08977 24.897 0.58287 25.1669 0.278732 25.6194C-0.0254062 26.072 -0.0844883 26.6433 0.120956 27.1482L1.66045 30.9247C1.87126 31.441 2.32109 31.8043 2.85216 31.9097V39.26C2.85216 39.9717 3.42955 40.5491 4.14122 40.5491C4.85356 40.5491 5.43028 39.9717 5.43028 39.26V31.9419H9.94872V67.5791H5.43028V44.4364C5.43028 43.7247 4.85356 43.1474 4.14122 43.1474C3.42955 43.1474 2.85216 43.7247 2.85216 44.4364V68.5238C2.85216 69.4248 3.58531 70.1579 4.48631 70.1579H11.2378H11.2445H76.7558H76.7625H83.5139C84.4149 70.1579 85.1481 69.4248 85.1481 68.5238V39.9093C85.1481 39.1976 84.5714 38.6202 83.859 38.6202C83.1467 38.6202 82.57 39.1976 82.57 39.9093V67.5798H78.0515V31.9419H82.57V34.794C82.57 35.5056 83.1467 36.083 83.859 36.083C84.5714 36.083 85.1481 35.5056 85.1481 34.794V31.9103C85.6792 31.8043 86.129 31.441 86.3398 30.9247L87.8793 27.1482C88.0847 26.6433 88.0257 26.072 87.7215 25.6194ZM78.1744 22.7614C78.1744 21.5831 79.1325 20.625 80.3108 20.625C81.4884 20.625 82.4471 21.5831 82.4471 22.7614C82.4471 23.939 81.4884 24.897 80.3108 24.897C79.1325 24.897 78.1744 23.939 78.1744 22.7614ZM75.4734 59.2224H71.012V38.1388C72.3239 38.3792 73.7996 38.5369 75.4734 38.59V59.2224ZM63.5952 59.2224V35.0686C64.8863 36.0132 66.4285 36.8706 68.4339 37.505V59.2224H63.5952ZM61.0171 32.8463V59.2224H56.1784V28.8065C57.8341 29.7243 59.054 30.9221 60.3558 32.2004C60.5733 32.4146 60.7929 32.6301 61.0171 32.8463ZM49.1389 27.0824C50.91 27.1583 52.3649 27.3919 53.5996 27.7477V59.2224H49.1389V27.0824ZM38.8613 59.2224H34.4V27.7477C35.6353 27.3919 37.0895 27.1583 38.8613 27.0824V59.2224ZM31.8218 28.8065V59.2224H26.9832V32.8463C27.2074 32.6301 27.4269 32.4146 27.6445 32.2004C28.9463 30.9221 30.1662 29.7243 31.8218 28.8065ZM19.5663 59.2224V37.505C21.5724 36.8706 23.1139 36.0139 24.405 35.0686V59.2224H19.5663ZM16.9882 38.1388V59.2224H12.5268V38.59C14.2006 38.5369 15.6757 38.3792 16.9882 38.1388ZM5.55315 22.7614C5.55315 21.5831 6.51189 20.625 7.6895 20.625C8.86779 20.625 9.82586 21.5831 9.82586 22.7614C9.82586 23.939 8.86779 24.897 7.6895 24.897C6.51189 24.897 5.55315 23.939 5.55315 22.7614ZM3.80821 29.3638L3.0388 27.4752H12.7477L11.6843 29.3638H3.80821ZM12.5268 61.8005H38.8613V67.5791H12.5268V61.8005ZM41.4395 24.9487C41.4395 24.7252 41.6214 24.5439 41.8443 24.5439H42.7218V34.7329C42.7218 35.4452 43.2985 36.0219 44.0109 36.0219C44.7232 36.0219 45.2999 35.4452 45.2999 34.7329V24.5439H46.1553C46.3788 24.5439 46.5608 24.7252 46.5608 24.9487V67.5791H45.2999V39.9093C45.2999 39.1976 44.7232 38.6202 44.0109 38.6202C43.2985 38.6202 42.7218 39.1976 42.7218 39.9093V67.5791H41.4395V24.9487ZM75.4734 67.5791H49.1389V61.8005H75.4734V67.5791ZM76.316 29.3638L75.2525 27.4752H84.9614L84.192 29.3638H76.316Z" fill="#003334"/>
</g>
<defs>
<clipPath id="clip0_31_292">
<rect width="88" height="88" fill="white"/>
</clipPath>
</defs>
</svg>
