<svg width="64" height="72" viewBox="0 0 64 72" fill="none" xmlns="http://www.w3.org/2000/svg">
<path d="M51.7651 2.31209C51.7651 1.04384 50.7212 0 49.4529 0H38.2516C36.9721 0 35.9283 1.04384 35.9283 2.31209V5.7578H51.7651V2.31209Z" fill="#003334"/>
<path d="M57.7018 6.59912H29.9791C26.9049 6.59912 24.4121 9.0908 24.4121 12.1661V66.433C24.4121 69.5084 26.9049 72 29.9791 72H57.7018C60.7771 72 63.2801 69.5084 63.2801 66.433V12.1661C63.2801 9.0908 60.7771 6.59912 57.7018 6.59912ZM33.1263 56.1622L40.7775 39.9539H32.0802L39.7921 22.437H49.073L45.8058 31.1814L55.6097 32.5215L33.1263 56.1622Z" fill="#003334"/>
<path d="M8.60937 45.9948C8.01448 45.6469 7.80126 44.8725 8.14919 44.2664C8.37365 43.8736 8.78892 43.6266 9.2379 43.6266C9.46236 43.6266 9.67561 43.6827 9.86643 43.795C9.94497 43.8399 16.8813 47.8243 22.8635 54.177C23.4023 52.7628 23.6043 51.1241 23.4472 49.3732C23.29 47.656 22.7513 46.0622 21.9095 44.7603C18.6995 39.7881 11.4602 37.9587 0.371097 39.3167C0.225216 39.3392 0.0905025 39.429 0.0343974 39.5636C-0.0217078 39.6983 -0.0105072 39.8555 0.079302 39.9789C2.08833 42.841 3.13217 45.9948 4.05249 48.7783C5.54527 53.3128 6.836 57.2186 11.5163 58.5655C12.8632 59.0032 14.1651 59.2277 15.3773 59.2277C17.319 59.2277 19.0475 58.6665 20.428 57.5666C20.8433 57.2411 21.2136 56.8707 21.5504 56.4666C15.7701 50.1252 8.69915 46.0397 8.60937 45.9948Z" fill="#003334"/>
<path d="M9.45102 44.5248C9.24897 44.4125 8.99084 44.4799 8.8786 44.6819C8.75512 44.8839 8.8337 45.1421 9.03572 45.2543C9.12552 45.3104 17.4872 50.1254 23.5705 57.5107V56.2087C17.4423 49.1377 9.5408 44.5809 9.45102 44.5248Z" fill="#003334"/>
</svg>
