<svg width="88" height="88" viewBox="0 0 88 88" fill="none" xmlns="http://www.w3.org/2000/svg">
<path d="M12.714 61.4009L14.0413 54.7574L17.95 55.5384L16.6227 62.1818L12.714 61.4009Z" fill="#003334"/>
<path d="M21.992 55.5674L25.9007 54.7864L27.228 61.4299L23.3193 62.2108L21.992 55.5674Z" fill="#003334"/>
<path d="M60.788 61.3813L62.1153 54.7379L66.024 55.5188L64.6966 62.1623L60.788 61.3813Z" fill="#003334"/>
<path d="M70.0898 55.5732L73.9985 54.7923L75.3258 61.4357L71.4172 62.2167L70.0898 55.5732Z" fill="#003334"/>
<path d="M47.7264 10H40.2736L39.6806 18.3008H48.3193L47.7264 10Z" fill="#003334"/>
<path d="M61.9986 18.3008L60.2198 10H51.7209L52.3138 18.3008H61.9986Z" fill="#003334"/>
<path d="M48.6045 22.2852H39.3966L38.8037 30.5859H49.1974L48.6045 22.2852Z" fill="#003334"/>
<path d="M53.1913 30.5859H64.6311L62.8525 22.2852H52.5984L53.1913 30.5859Z" fill="#003334"/>
<path d="M36.2787 10H27.7797L26.001 18.3008H35.6858L36.2787 10Z" fill="#003334"/>
<path d="M35.4018 22.2852H25.1478L23.3691 30.5859H34.8089L35.4018 22.2852Z" fill="#003334"/>
<path d="M60.0703 37.8906C55.3876 37.8906 51.0206 39.9054 47.9844 43.269V34.5703H40.0156V43.269C36.9794 39.9054 32.6124 37.8906 27.9297 37.8906H10V45.1953C10 48.4961 12.6758 51.1719 15.9766 51.1719H23.9453C27.2461 51.1719 29.9219 48.4961 29.9219 45.1953V42.0394C33.9669 42.7044 37.4748 45.3632 39.1696 49.19L40.0156 51.1006V78H47.9844V51.1006L48.8304 49.19C50.5252 45.3632 54.0331 42.7044 58.0781 42.0394V45.1953C58.0781 48.4961 60.7539 51.1719 64.0547 51.1719H72.0234C75.3242 51.1719 78 48.4961 78 45.1953V37.8906H60.0703Z" fill="#003334"/>
</svg>
