<svg width="82" height="56" viewBox="0 0 82 56" fill="none" xmlns="http://www.w3.org/2000/svg">
<path d="M56.3083 28H77.3917L74.4033 17H54.475L56.3083 28Z" fill="#003334"/>
<path d="M31.8517 13.3338H50.1483L48.0033 0.500488H33.9967L31.8517 13.3338Z" fill="#003334"/>
<path d="M27.525 17H7.59666L4.59 28H25.6917L27.525 17Z" fill="#003334"/>
<path d="M53.8333 13.3334H73.395L70.3333 1.85677C70.2259 1.4568 69.9862 1.105 69.6533 0.858647C69.3204 0.612298 68.9139 0.485921 68.5 0.500099H51.725L53.8333 13.3334Z" fill="#003334"/>
<path d="M52.5867 28L50.7533 17H31.2467L29.4133 28H52.5867Z" fill="#003334"/>
<path d="M55.3367 44.5003L53.21 31.667H28.79L26.6633 44.5003H39.1667V51.8337H33.6667C33.1804 51.8337 32.7141 52.0268 32.3703 52.3706C32.0265 52.7144 31.8333 53.1808 31.8333 53.667C31.8333 54.1532 32.0265 54.6195 32.3703 54.9634C32.7141 55.3072 33.1804 55.5003 33.6667 55.5003H48.3333C48.8196 55.5003 49.2859 55.3072 49.6297 54.9634C49.9735 54.6195 50.1667 54.1532 50.1667 53.667C50.1667 53.1808 49.9735 52.7144 49.6297 52.3706C49.2859 52.0268 48.8196 51.8337 48.3333 51.8337H42.8333V44.5003H55.3367Z" fill="#003334"/>
<path d="M59.0583 44.5003H79.5C79.7867 44.5102 80.0717 44.4527 80.3321 44.3325C80.5925 44.2122 80.8211 44.0325 80.9994 43.8078C81.1777 43.5831 81.3008 43.3197 81.3588 43.0388C81.4168 42.7579 81.4081 42.4673 81.3333 42.1903L78.4 31.667H56.9133L59.0583 44.5003Z" fill="#003334"/>
<path d="M2.5 44.5003H22.9417L25.0867 31.667H3.6L0.666663 42.1903C0.591912 42.4673 0.583186 42.7579 0.641188 43.0388C0.69919 43.3197 0.8223 43.5831 1.00062 43.8078C1.17894 44.0325 1.4075 44.2122 1.66791 44.3325C1.92832 44.4527 2.21332 44.5102 2.5 44.5003Z" fill="#003334"/>
<path d="M30.275 0.500099H13.5C13.0861 0.485921 12.6796 0.612298 12.3467 0.858647C12.0138 1.105 11.7741 1.4568 11.6667 1.85677L8.605 13.3334H28.1667L30.275 0.500099Z" fill="#003334"/>
</svg>
