<svg width="88" height="88" viewBox="0 0 88 88" fill="none" xmlns="http://www.w3.org/2000/svg">
<path d="M18 31H70V37H18V31Z" fill="#003334"/>
<path d="M18 39H70V43H18V39Z" fill="#003334"/>
<path d="M15.1757 30.1913C15.1757 29.5105 15.7282 28.9591 16.4101 28.9591H71.5899C72.2718 28.9591 72.8243 29.5105 72.8243 30.1913V82H77V29.5264L44.0572 6L11 29.5442V82H15.1757V30.1913Z" fill="#003334"/>
<path d="M50.4214 69H37.5486C36.9062 69.0784 36.3466 69.6801 36.0972 70.5604L36 71H52L51.9014 70.571C51.6405 69.6833 51.0724 69.0794 50.4214 69Z" fill="#003334"/>
<path d="M28 70C27.4475 70 27 70.4475 27 71C27 71.5516 27.4475 72 28 72C28.5525 72 29 71.5516 29 71C28.9991 70.4475 28.5516 70 28 70Z" fill="#003334"/>
<path d="M27 80H29V82H27V80Z" fill="#003334"/>
<path d="M59 80H61V82H59V80Z" fill="#003334"/>
<path d="M60 70C59.4484 70 59 70.4475 59 71C59 71.5516 59.4484 72 60 72C60.5525 72 61 71.5516 61 71C61 70.4475 60.5525 70 60 70Z" fill="#003334"/>
<path d="M63.783 77.2394C63.783 77.1834 63.7865 77.1266 63.7935 77.0705L65 67.6612C64.9665 66.3709 64.1015 65.0093 62.7215 65.0093C62.7145 65.0093 62.7082 65.0093 62.7019 65.0086H25.2214C25.1789 65.0079 25.137 65.005 25.0945 65C24.0574 65.0827 23.0321 66.0625 23 67.6627L24.1563 77.0777C24.1626 77.1316 24.1661 77.1855 24.1661 77.2394C24.171 77.6571 24.4986 77.995 24.9035 78H63.0456C63.4505 77.995 63.7774 77.6571 63.783 77.2394ZM27.8784 74.8291C26.0515 74.8291 24.5704 73.3015 24.5704 71.4173C24.5704 69.5325 26.0515 68.0056 27.8784 68.0056C29.7053 68.0056 31.1864 69.5325 31.1864 71.4173C31.1843 73.3008 29.7046 74.8269 27.8784 74.8291ZM54.5511 72.9945C54.3169 73.3317 53.9384 73.5322 53.5355 73.5322H34.4645C34.0644 73.5322 33.6887 73.3345 33.4538 73.0003C33.2189 72.6667 33.1534 72.2368 33.2775 71.8443L33.9062 69.8581C34.4094 68.268 36.0746 67.0222 37.6965 67.0222H50.2519C51.8675 67.0222 53.5404 68.2579 54.0604 69.8351L54.7183 71.8292C54.848 72.2225 54.7859 72.6567 54.5511 72.9945ZM60.1216 74.8291C58.2947 74.8291 56.8136 73.3015 56.8136 71.4173C56.8136 69.5325 58.2947 68.0056 60.1216 68.0056C61.9492 68.0056 63.4296 69.5325 63.4296 71.4173C63.4282 73.3008 61.9478 74.8269 60.1216 74.8291Z" fill="#003334"/>
<path d="M50 63H56C55.4924 61.7881 54.3094 61 53 61C51.6898 61 50.5076 61.7881 50 63Z" fill="#003334"/>
<path d="M57.8693 63H60L57.2284 57.4584C55.9834 55.0384 54.8953 54 53.5966 54H34.575C32.7098 54 31.4809 56.1262 30.9144 57.3929C30.903 57.4176 30.8916 57.4416 30.8802 57.4649L28 63H47.7685C48.274 60.4121 50.3806 58.5614 52.8189 58.5614C55.258 58.5614 57.3638 60.4121 57.8693 63Z" fill="#003334"/>
</svg>
