<svg width="88" height="88" viewBox="0 0 88 88" fill="none" xmlns="http://www.w3.org/2000/svg">
<g clip-path="url(#clip0_1_2238)">
<path d="M70.125 24.75C73.922 24.75 77 21.672 77 17.875C77 14.078 73.922 11 70.125 11C66.328 11 63.25 14.078 63.25 17.875C63.25 21.672 66.328 24.75 70.125 24.75Z" fill="#003334"/>
<path d="M87.3756 21.8214C86.7189 21.3935 86.1793 20.8085 85.8059 20.1194C85.4324 19.4303 85.2368 18.6589 85.2368 17.8751C85.2368 17.0913 85.4324 16.3199 85.8059 15.6308C86.1793 14.9417 86.7189 14.3567 87.3756 13.9289C87.6265 13.7654 87.8172 13.5245 87.9188 13.2427C88.0203 12.961 88.0272 12.6538 87.9383 12.3678C87.8556 12.078 87.6772 11.8248 87.432 11.6495C87.1869 11.4741 86.8896 11.3871 86.5887 11.4024L86.1294 11.4145C85.3544 11.4348 84.5864 11.2635 83.8935 10.9159C83.2005 10.5683 82.604 10.0551 82.1568 9.42184C81.7097 8.78853 81.4257 8.05468 81.33 7.28535C81.2344 6.51602 81.33 5.73497 81.6084 5.01144C81.7127 4.73429 81.7246 4.43089 81.6426 4.14639C81.5605 3.86189 81.3888 3.61148 81.153 3.4324C80.9172 3.25333 80.6298 3.15517 80.3338 3.15252C80.0377 3.14986 79.7486 3.24286 79.5096 3.41768L78.8771 3.88092C78.2735 4.3283 77.5705 4.62301 76.8283 4.7399C76.0861 4.85679 75.3266 4.79239 74.6146 4.55219C73.9002 4.32043 73.2524 3.91928 72.7265 3.38296C72.2007 2.84664 71.8124 2.19108 71.5947 1.47219L71.4382 0.96619C71.3512 0.685963 71.1768 0.440928 70.9406 0.266911C70.7043 0.0928943 70.4186 -0.000976562 70.1251 -0.000976562C69.8317 -0.000976562 69.546 0.0928943 69.3097 0.266911C69.0734 0.440928 68.899 0.685963 68.812 0.96619L68.655 1.47384C68.437 2.19235 68.0485 2.84751 67.5227 3.38348C66.9969 3.91946 66.3493 4.32037 65.6351 4.55205C64.9231 4.79225 64.1636 4.85665 63.4214 4.73977C62.6792 4.62288 61.9762 4.32817 61.3726 3.88078L60.7401 3.41754C60.5005 3.24582 60.2116 3.15651 59.9169 3.16303C59.6222 3.16955 59.3376 3.27155 59.1059 3.4537C58.8704 3.63808 58.6999 3.89284 58.6192 4.18087C58.5386 4.4689 58.552 4.77515 58.6575 5.05503C58.9336 5.77624 59.0254 6.55495 58.9246 7.3206C58.8237 8.08626 58.5334 8.81464 58.08 9.43976C57.6318 10.0678 57.0364 10.5762 56.346 10.9205C55.6556 11.2647 54.8912 11.4344 54.12 11.4144L53.6607 11.4023C53.3599 11.3876 53.0629 11.4749 52.818 11.6501C52.573 11.8254 52.3944 12.0782 52.3112 12.3677C52.2223 12.6537 52.2291 12.9608 52.3306 13.2426C52.4322 13.5243 52.6229 13.7652 52.8738 13.9287C53.5305 14.3566 54.0701 14.9416 54.4436 15.6307C54.8171 16.3198 55.0127 17.0912 55.0127 17.875C55.0127 18.6588 54.8171 19.4302 54.4436 20.1193C54.0701 20.8084 53.5305 21.3934 52.8738 21.8212C52.623 21.9847 52.4324 22.2256 52.331 22.5073C52.2295 22.789 52.2228 23.0962 52.3119 23.382C52.4009 23.6679 52.5808 23.9169 52.8243 24.0912C53.0677 24.2655 53.3614 24.3555 53.6607 24.3477L54.12 24.3356C54.895 24.3153 55.663 24.4865 56.356 24.8341C57.0489 25.1817 57.6454 25.6949 58.0926 26.3283C58.5397 26.9616 58.8237 27.6954 58.9194 28.4647C59.0151 29.2341 58.9194 30.0151 58.641 30.7387C58.5368 31.0158 58.5248 31.3192 58.6069 31.6037C58.6889 31.8882 58.8606 32.1386 59.0964 32.3177C59.3323 32.4968 59.6196 32.5949 59.9157 32.5976C60.2118 32.6002 60.5008 32.5072 60.7398 32.3324L61.3723 31.8692C61.9777 31.4259 62.6804 31.1336 63.4217 31.0169C64.1629 30.9001 64.9214 30.9621 65.6338 31.1978C66.3462 31.4335 66.992 31.836 67.5174 32.3718C68.0428 32.9076 68.4325 33.5612 68.6542 34.2782L68.8112 34.7838C68.8982 35.064 69.0726 35.309 69.3089 35.483C69.5451 35.6571 69.8309 35.7509 70.1243 35.7509C70.4177 35.7509 70.7035 35.6571 70.9397 35.483C71.176 35.309 71.3504 35.064 71.4374 34.7838L71.5944 34.2761C71.8165 33.5595 72.2066 32.9063 72.7321 32.3709C73.2576 31.8355 73.9034 31.4333 74.6158 31.1979C75.3281 30.9626 76.0864 30.9007 76.8275 31.0176C77.5685 31.1345 78.271 31.4267 78.8763 31.8699L79.5088 32.3331C79.7485 32.5047 80.0373 32.5939 80.3319 32.5874C80.6266 32.5808 80.9112 32.4789 81.143 32.2969C81.3785 32.1126 81.549 31.8578 81.6297 31.5698C81.7103 31.2817 81.6969 30.9755 81.5914 30.6956C81.3215 29.9731 81.233 29.1953 81.3339 28.4306C81.4347 27.6659 81.7217 26.9377 82.1697 26.3098C82.6177 25.6819 83.213 25.1736 83.9033 24.8295C84.5936 24.4854 85.3578 24.316 86.1289 24.3362L86.5881 24.3483C86.888 24.3587 87.183 24.2696 87.427 24.095C87.6711 23.9205 87.8506 23.6701 87.9377 23.3829C88.0268 23.097 88.0201 22.7897 87.9187 22.5078C87.8172 22.226 87.6265 21.985 87.3756 21.8214ZM70.125 27.5001C68.2213 27.5001 66.3604 26.9356 64.7776 25.878C63.1948 24.8204 61.9611 23.3172 61.2326 21.5584C60.5042 19.7997 60.3135 17.8644 60.6849 15.9974C61.0563 14.1303 61.973 12.4153 63.3191 11.0692C64.6652 9.72313 66.3802 8.80644 68.2472 8.43506C70.1143 8.06367 72.0496 8.25428 73.8083 8.98277C75.5671 9.71127 77.0703 10.9449 78.1279 12.5278C79.1855 14.1106 79.75 15.9715 79.75 17.8751C79.747 20.4269 78.732 22.8734 76.9276 24.6778C75.1232 26.4822 72.6768 27.4972 70.125 27.5001Z" fill="#003334"/>
<path d="M45.8105 46.75L52.8822 55H63.0104L55.9388 46.75H45.8105Z" fill="#003334"/>
<path d="M42.1898 46.75H31.5566L37.5104 53.6937C37.8374 54.0799 38.091 54.5226 38.2587 55H49.2614L42.1898 46.75Z" fill="#003334"/>
<path d="M76.2572 55L69.1855 46.75H59.5605L66.6322 55H76.2572Z" fill="#003334"/>
<path d="M53.5821 44L46.5119 35.75H36.3809L43.4525 44H53.5821Z" fill="#003334"/>
<path d="M56.375 74.2502V79.4339L63.7588 72.8752H60.5C60.1357 72.8741 59.7865 72.7289 59.5289 72.4713C59.2713 72.2136 59.1261 71.8645 59.125 71.5002V66.3164L51.7413 72.8752H55C55.3644 72.8762 55.7135 73.0214 55.9711 73.279C56.2288 73.5367 56.374 73.8858 56.375 74.2502Z" fill="#003334"/>
<path d="M38.5 88H75.625C75.9893 87.9989 76.3385 87.8537 76.5961 87.5961C76.8537 87.3385 76.9989 86.9893 77 86.625V57.75H38.5V88ZM47.2175 73.2188L59.5925 62.2188C59.7911 62.0447 60.0356 61.9314 60.2969 61.8925C60.5581 61.8537 60.825 61.8908 61.0657 61.9996C61.3064 62.1083 61.5107 62.2841 61.6542 62.5058C61.7977 62.7275 61.8744 62.9859 61.875 63.25V70.125H67.375C67.6525 70.1237 67.9237 70.2073 68.1523 70.3646C68.3809 70.5219 68.5559 70.7454 68.6538 71.005C68.7535 71.2671 68.7714 71.5533 68.7051 71.8258C68.6388 72.0982 68.4915 72.3442 68.2825 72.5312L55.9075 83.5312C55.6566 83.7519 55.3341 83.8741 55 83.875C54.8053 83.875 54.613 83.8328 54.4363 83.7512C54.1948 83.6431 53.9897 83.4675 53.8458 83.2455C53.7019 83.0235 53.6252 82.7646 53.625 82.5V75.625H48.125C47.8475 75.6263 47.5763 75.5427 47.3477 75.3854C47.1191 75.2281 46.9441 75.0046 46.8462 74.745C46.7465 74.4829 46.7286 74.1967 46.7949 73.9242C46.8612 73.6518 47.0085 73.4058 47.2175 73.2188Z" fill="#003334"/>
<path d="M59.1253 35.75H50.1328L57.2042 44H66.8292L60.1703 36.2313C60.0406 36.0811 59.8802 35.9605 59.6999 35.8774C59.5197 35.7944 59.3238 35.751 59.1253 35.75Z" fill="#003334"/>
<path d="M39.8326 44L32.761 35.75H22.124L29.1984 44H39.8326Z" fill="#003334"/>
<path d="M12.375 67.375H23.375V88H12.375V67.375Z" fill="#003334"/>
<path d="M18.9184 36.2301C18.7855 36.086 18.6241 35.9709 18.4446 35.8923C18.265 35.8136 18.0711 35.7729 17.875 35.7729C17.6789 35.7729 17.485 35.8136 17.3054 35.8923C17.1259 35.9709 16.9645 36.086 16.8317 36.2301L0.331651 55.4801C0.117355 55.729 -0.000348325 56.0467 7.74324e-07 56.3751V86.6251C7.74324e-07 86.9898 0.144866 87.3395 0.402729 87.5974C0.660591 87.8552 1.01033 88.0001 1.375 88.0001H9.625V66.0001C9.625 65.6354 9.76987 65.2857 10.0277 65.0278C10.2856 64.77 10.6353 64.6251 11 64.6251H24.75C25.1147 64.6251 25.4644 64.77 25.7223 65.0278C25.9801 65.2857 26.125 65.6354 26.125 66.0001V88.0001H35.75V56.3751C35.7504 56.0467 35.6326 55.729 35.4184 55.4801L18.9184 36.2301Z" fill="#003334"/>
</g>
<defs>
<clipPath id="clip0_1_2238">
<rect width="88" height="88" fill="white"/>
</clipPath>
</defs>
</svg>
